<svg width="820" height="622" viewBox="0 0 820 622" fill="none" xmlns="http://www.w3.org/2000/svg">
<path d="M502.304 92.1263C502.304 92.1263 408.145 62.6852 315.716 109.561C223.287 156.437 176.644 249.499 136.596 324.043C96.5479 398.587 119.596 474.412 190.109 509.008C260.622 543.604 308.648 492.591 407.622 490.128C506.597 487.666 533.279 500.033 615.403 450.903C697.528 401.772 712.387 285.639 647.599 199.657C582.81 113.676 502.304 92.1263 502.304 92.1263Z" fill="#B6C49D"/>
<path d="M485.304 76.1263C485.304 76.1263 391.145 46.6852 298.716 93.5611C206.287 140.437 159.644 233.499 119.596 308.043C79.5479 382.587 102.596 458.412 173.109 493.008C243.622 527.604 291.648 476.591 390.622 474.128C489.597 471.666 516.279 484.033 598.403 434.903C680.528 385.772 695.387 269.639 630.599 183.657C565.81 97.6763 485.304 76.1263 485.304 76.1263Z" fill="#738F48"/>
<path d="M415.57 241.07C415.57 241.07 412.97 243.67 413.23 246.27C413.49 248.87 435.59 295.42 437.93 298.8C440.27 302.18 447.03 303.22 450.16 301.4C453.29 299.58 465.5 286.58 465.5 286.58L464.89 219.92C464.89 219.92 454.06 250.92 450.94 255.92C447.82 260.92 446.25 263.47 446.25 263.47C446.25 263.47 439.25 243.7 437.41 239.8C436.122 237.29 434.136 235.206 431.69 233.8L415.57 241.07Z" fill="#BFBFBF" stroke="#263238" stroke-linecap="round" stroke-linejoin="round"/>
<path d="M470.28 501C470.28 501 454.67 506.9 448.77 509C442.87 511.1 443.22 516.29 443.91 517.33L444.61 518.33H500.47C501.297 515.367 501.175 512.22 500.12 509.33C498.39 504.15 470.28 501 470.28 501Z" fill="white" stroke="#263238" stroke-linecap="round" stroke-linejoin="round"/>
<path d="M501 515.6H443.55C443.516 516.201 443.64 516.801 443.91 517.34L444.61 518.34H500.47C500.758 517.452 500.936 516.532 501 515.6V515.6Z" fill="white" stroke="#263238" stroke-linecap="round" stroke-linejoin="round"/>
<path d="M458.48 310.54C458.48 310.54 454.67 348.36 454.67 367.79C454.67 387.22 461.61 425.74 463.67 437.54C465.73 449.34 472.67 486.46 472.67 489.23C472.67 492 472.67 495.48 470.59 496.87C469.89 497.301 469.325 497.918 468.957 498.654C468.59 499.389 468.435 500.212 468.51 501.03V503.11C468.51 503.11 485.16 511.44 492.45 511.79C495.682 512.046 498.928 512.046 502.16 511.79C502.16 511.79 501.47 496.17 501.47 489.58C501.47 482.99 501.82 435.8 502.16 428.51C502.5 421.22 503.9 368.83 505.29 354.26C506.68 339.69 510.84 314.71 510.84 314.71L459.84 306.38L458.48 310.54Z" fill="#9AAE7A" stroke="#263238" stroke-linecap="round" stroke-linejoin="round"/>
<path d="M507.41 501C507.41 501 491.79 506.9 485.9 509C480.01 511.1 480.34 516.29 481.04 517.33L481.73 518.33H537.59C538.418 515.368 538.299 512.221 537.25 509.33C535.51 504.15 507.41 501 507.41 501Z" fill="white" stroke="#263238" stroke-linecap="round" stroke-linejoin="round"/>
<path d="M538.08 515.6H480.67C480.643 516.202 480.771 516.801 481.04 517.34L481.73 518.34H537.59C537.87 517.451 538.035 516.531 538.08 515.6V515.6Z" fill="white" stroke="#263238" stroke-linecap="round" stroke-linejoin="round"/>
<path d="M488.32 315.05C488.32 315.05 488.67 368.14 488.32 383.75C487.97 399.36 497.32 438.92 500.12 448.29C502.92 457.66 507.75 494.09 508.12 495.83C508.49 497.57 502.92 499.3 502.92 503.11C502.92 506.92 518.18 506.93 518.18 506.93C518.18 506.93 532.41 511.09 533.8 511.09C535.225 511.264 536.623 511.617 537.96 512.14C539.355 507.28 540.171 502.272 540.39 497.22C540.448 491.463 539.629 485.73 537.96 480.22C537.96 480.22 539.7 449.69 538.31 431.65C536.92 413.61 533.1 391.75 533.1 385.15C533.1 378.55 536.92 366.42 538.66 352.88C540.4 339.34 541.08 319.57 541.08 315.41C541.08 311.25 489.08 310.21 489.08 310.21L488.32 315.05Z" fill="#9AAE7A" stroke="#263238" stroke-linecap="round" stroke-linejoin="round"/>
<path d="M501.51 207.15C501.51 207.15 475.83 211.66 471.32 212.35C466.81 213.04 464 220 463 225.88C462 231.76 456.06 308.46 458.48 310.54C460.9 312.62 526.14 319.54 533.43 319.91C540.72 320.28 543.15 320.61 543.84 315.4C544.53 310.19 555.13 235.72 557.13 228.93C560.59 217.14 529.27 210.93 521.98 209.23C514.69 207.53 501.51 207.15 501.51 207.15Z" fill="#BFBFBF" stroke="#263238" stroke-linecap="round" stroke-linejoin="round"/>
<path d="M536 212.85C536 212.85 523.35 250.85 521.27 256.42C519.19 261.99 519.18 263.35 519.18 263.35L476.51 254.35C476.51 254.35 481.02 232.84 482.75 226.94C484.48 221.04 488.62 209.41 488.62 209.41L485.53 209.94C485.53 209.94 475.47 242.21 473.04 250.88C470.61 259.55 459.18 287.3 458.48 296C457.78 304.7 454.32 336.94 453.28 358.46C452.24 379.98 453.63 402.52 453.63 402.52C453.63 402.52 494.22 410.15 506.37 409.81C518.52 409.47 526.14 409.46 526.14 409.46C526.14 409.46 525.14 368.17 526.49 354.99C527.84 341.81 532.39 317.51 532.39 317.51L543.49 316.82L543.84 315.43L530.31 314.43C530.31 314.43 523 266.48 523 264.74V262L538.31 213.81L536 212.85Z" fill="#263238" stroke="#263238" stroke-linecap="round" stroke-linejoin="round"/>
<path d="M552.22 346.33C552.22 346.33 544.22 357.78 543.63 359.69C543.04 361.6 544.9 369.56 544.9 372.1C544.9 374.64 548.08 374.65 548.08 374.65C548.08 374.65 546.49 378.78 548.4 380.38C550.31 381.98 558.58 381.65 560.17 378.78C561.76 375.91 568.17 366.06 568.17 361.28C567.988 357.317 567.456 353.379 566.58 349.51L552.22 346.33Z" fill="#828282" stroke="#263238" stroke-linecap="round" stroke-linejoin="round"/>
<path d="M548.08 374.65C548.08 374.65 550.63 372.42 550.63 369.56C550.63 366.7 553.17 361.92 553.17 361.92" stroke="#263238" stroke-linecap="round" stroke-linejoin="round"/>
<path d="M552.86 339C552.54 339.95 550.31 346.64 552.22 348.55C554.13 350.46 565.9 352.36 567.17 351.09C568.44 349.82 570.67 342.5 570.67 342.5L552.86 339Z" fill="#BFBFBF" stroke="#263238" stroke-linecap="round" stroke-linejoin="round"/>
<path d="M539.17 265.19L551.9 294.46C551.9 294.46 547.76 336.15 549.99 339.65C552.22 343.15 570.36 344.74 573.54 342.51C576.72 340.28 578.95 332.33 580.22 318.01C581.49 303.69 574.49 263.6 572.58 256.91C570.67 250.22 558 223.5 555.08 221.28C552.16 219.06 546.81 219.68 545.22 220.28" fill="#BFBFBF"/>
<path d="M539.17 265.19L551.9 294.46C551.9 294.46 547.76 336.15 549.99 339.65C552.22 343.15 570.36 344.74 573.54 342.51C576.72 340.28 578.95 332.33 580.22 318.01C581.49 303.69 574.49 263.6 572.58 256.91C570.67 250.22 558 223.5 555.08 221.28C552.16 219.06 546.81 219.68 545.22 220.28" stroke="#263238" stroke-linecap="round" stroke-linejoin="round"/>
<path d="M426.85 227C426.85 227 423.98 215.55 421.44 211.09C418.9 206.63 402.03 200.59 400.12 200.59C398.21 200.59 398.85 204.73 398.85 208.59C398.85 212.45 399.48 219.09 403.62 223.54C407.76 227.99 415.07 231.18 415.07 231.18L417.3 236.59L428.76 230.54L426.85 227Z" fill="#828282" stroke="#263238" stroke-linecap="round" stroke-linejoin="round"/>
<path d="M420.25 196.34L420.85 193.68C421.009 192.979 421.025 192.253 420.896 191.546C420.768 190.839 420.498 190.165 420.103 189.565C419.708 188.964 419.196 188.45 418.598 188.052C417.999 187.654 417.326 187.382 416.62 187.25V187.25C415.432 187.027 414.205 187.212 413.135 187.775C412.066 188.338 411.219 189.245 410.73 190.35L386.44 245.49" stroke="#263238" stroke-linecap="round" stroke-linejoin="round"/>
<path d="M361.24 241.59C361.371 244.91 362.782 248.051 365.178 250.354C367.573 252.657 370.767 253.943 374.09 253.943C377.413 253.943 380.607 252.657 383.002 250.354C385.398 248.051 386.809 244.91 386.94 241.59H361.24Z" fill="white" stroke="#263238" stroke-linecap="round" stroke-linejoin="round"/>
<path d="M365.4 225.1C365.53 224.092 365.775 223.102 366.13 222.15" stroke="#263238" stroke-linecap="round" stroke-linejoin="round"/>
<path d="M365 239.24C367.19 238.17 368.24 234.43 367.33 232.42C366.695 231.123 366.144 229.787 365.68 228.42" stroke="#263238" stroke-linecap="round" stroke-linejoin="round"/>
<path d="M372.87 239.24C375.07 238.17 376.11 234.43 375.21 232.42C374.1 229.97 373.33 228.33 373.21 226.51" stroke="#263238" stroke-linecap="round" stroke-linejoin="round"/>
<path d="M381.18 224.49C381.326 223.693 381.54 222.91 381.82 222.15" stroke="#263238" stroke-linecap="round" stroke-linejoin="round"/>
<path d="M380.72 239.24C382.91 238.17 383.96 234.43 383.05 232.42C382.459 231.201 381.938 229.949 381.49 228.67" stroke="#263238" stroke-linecap="round" stroke-linejoin="round"/>
<path d="M402.66 200.59C402.66 200.59 394.39 198.68 393.76 200.27C393.13 201.86 393.12 205.05 394.39 206C395.66 206.95 404.26 207.27 405.21 207C406.16 206.73 408.4 201.16 402.66 200.59Z" fill="#828282" stroke="#263238" stroke-linecap="round" stroke-linejoin="round"/>
<path d="M404.72 208.17C404.72 208.17 396.45 206.26 395.81 207.86C395.17 209.46 395.17 212.63 396.45 213.58C397.73 214.53 406.31 214.86 407.27 214.58C408.23 214.3 410.46 208.74 404.72 208.17Z" fill="#828282" stroke="#263238" stroke-linecap="round" stroke-linejoin="round"/>
<path d="M405.5 214.68C405.5 214.68 397.02 214.2 396.66 215.88C396.3 217.56 396.84 220.69 398.26 221.42C399.68 222.15 408.2 221 409.08 220.52C409.96 220.04 411.25 214.27 405.5 214.68Z" fill="#828282" stroke="#263238" stroke-linecap="round" stroke-linejoin="round"/>
<path d="M406.56 221.48C406.56 221.48 399.56 221.08 399.27 222.48C398.98 223.88 399.42 226.48 400.59 227.06C401.76 227.64 408.8 226.71 409.53 226.32C410.26 225.93 411.31 221.13 406.56 221.48Z" fill="#828282" stroke="#263238" stroke-linecap="round" stroke-linejoin="round"/>
<path d="M424.3 220C424.3 220 422.07 207.59 420.8 205.37C419.53 203.15 408.07 197.09 405.8 195.82C403.53 194.55 399.8 192.96 399.11 195.18C398.817 196.201 398.878 197.291 399.283 198.273C399.688 199.255 400.413 200.072 401.34 200.59C403.25 201.87 408.02 203.77 408.02 204.73C408.02 205.69 410.57 216.18 416.02 220" fill="#828282"/>
<path d="M424.3 220C424.3 220 422.07 207.59 420.8 205.37C419.53 203.15 408.07 197.09 405.8 195.82C403.53 194.55 399.8 192.96 399.11 195.18C398.817 196.201 398.878 197.291 399.283 198.273C399.688 199.255 400.413 200.072 401.34 200.59C403.25 201.87 408.02 203.77 408.02 204.73C408.02 205.69 410.57 216.18 416.02 220" stroke="#263238" stroke-linecap="round" stroke-linejoin="round"/>
<path d="M428.05 227.29C428.05 227.29 412.19 235.35 413.23 237.43C413.975 239.178 414.499 241.012 414.79 242.89C414.79 242.89 431.43 235.35 431.69 233.79C431.95 232.23 429.87 228.33 428.05 227.29Z" fill="#BFBFBF" stroke="#263238" stroke-linecap="round" stroke-linejoin="round"/>
<path d="M495.61 197.78C495.61 197.78 493.88 213.39 493.88 219.98C493.88 226.57 496 238 509.14 233.52C522.28 229.04 526.14 212.7 526.14 209.52C526.14 206.34 527.53 183.15 527.53 183.15C527.53 183.15 518.16 193.22 510.53 195.64C505.701 197.138 500.665 197.86 495.61 197.78V197.78Z" fill="white" stroke="#263238" stroke-linecap="round" stroke-linejoin="round"/>
<path d="M510.53 195.69C505.698 197.171 500.662 197.876 495.61 197.78C495.61 197.78 495.32 200.42 494.97 203.98C498.36 205.8 502.97 206.37 506.5 206.56C515.82 207.09 522.1 198 527.07 191.1C527.33 186.67 527.53 183.2 527.53 183.2C527.53 183.2 518.16 193.27 510.53 195.69Z" fill="#263238" stroke="#263238" stroke-linecap="round" stroke-linejoin="round"/>
<path d="M492.11 148.41C492.11 148.41 496.16 135.98 500.69 131.41C505.22 126.84 532.04 126.13 535.75 129.41C539.46 132.69 542.75 139.7 543.58 145.47C544.41 151.24 537.81 164.47 537.81 164.47L492.11 148.41Z" fill="#263238" stroke="#263238" stroke-linecap="round" stroke-linejoin="round"/>
<path d="M491.1 155.79C491.1 155.79 487.98 165.16 488.32 171.79C488.66 178.42 490.06 184.98 490.06 189.14C490.06 193.3 489.37 196.78 493.18 199.9C496.56 202.66 502.3 203.4 506.5 203.64C516.33 204.19 522.78 194.04 527.88 187.06C527.88 187.06 537.59 186.06 538.29 180.47C538.99 174.88 537.4 172.34 537.4 172.34L537.81 164.51C537.81 164.51 505.33 148.51 491.1 155.79Z" fill="white" stroke="#263238" stroke-linecap="round" stroke-linejoin="round"/>
<path d="M527.19 164.47C527.19 164.47 525.1 174.18 526.49 174.88C527.88 175.58 535.17 172.79 535.49 169.67C535.81 166.55 532 164.12 527.19 164.47Z" fill="#263238" stroke="#263238" stroke-linecap="round" stroke-linejoin="round"/>
<path d="M489.61 157.06C489.61 157.06 505.68 159.53 518.45 163.65C531.22 167.77 537.4 172.3 537.4 172.3C537.4 172.3 541.52 165.3 541.11 161.59C540.7 157.88 523 151.29 508.56 148.41C494.12 145.53 491.67 145.93 490.44 147.58C489.21 149.23 487.55 155.41 489.61 157.06Z" fill="#263238" stroke="#263238" stroke-linecap="round" stroke-linejoin="round"/>
<path d="M501.16 164.81C501.16 164.81 492.49 179.04 494.57 181.12C496.65 183.2 501.51 184.59 502.9 183.9" stroke="#263238" stroke-linecap="round" stroke-linejoin="round"/>
<path d="M494.57 187.37C494.57 187.37 512.57 192.57 516.43 182.86" stroke="#263238" stroke-linecap="round" stroke-linejoin="round"/>
<path d="M513.65 181.47L518.86 183.55" stroke="#263238" stroke-linecap="round" stroke-linejoin="round"/>
<path d="M512.09 170.36C512.952 170.36 513.65 169.196 513.65 167.76C513.65 166.324 512.952 165.16 512.09 165.16C511.228 165.16 510.53 166.324 510.53 167.76C510.53 169.196 511.228 170.36 512.09 170.36Z" fill="#263238"/>
<path d="M498.21 164.29C498.21 165.73 497.51 166.9 496.65 166.9C495.79 166.9 495.09 165.73 495.09 164.29C495.09 162.85 495.79 161.69 496.65 161.69C497.51 161.69 498.21 162.86 498.21 164.29Z" fill="#263238"/>
<path d="M510.53 159.61C510.53 159.61 519.2 159.96 518.86 166.9" stroke="#263238" stroke-linecap="round" stroke-linejoin="round"/>
<path d="M499.08 157.53C499.08 157.53 497 156.14 492.49 161" stroke="#263238" stroke-linecap="round" stroke-linejoin="round"/>
<path d="M374.23 377.13H364.41V518.39H374.23V377.13Z" fill="white" stroke="#263238" stroke-linecap="round" stroke-linejoin="round"/>
<path d="M381.03 377.13H371.21V518.39H381.03V377.13Z" fill="#263238" stroke="#263238" stroke-linecap="round" stroke-linejoin="round"/>
<path d="M421.06 377.13H411.24V518.39H421.06V377.13Z" fill="white" stroke="#263238" stroke-linecap="round" stroke-linejoin="round"/>
<path d="M427.86 377.13H418.04V518.39H427.86V377.13Z" fill="#263238" stroke="#263238" stroke-linecap="round" stroke-linejoin="round"/>
<path d="M525.3 377.13H515.48V518.39H525.3V377.13Z" fill="white" stroke="#263238" stroke-linecap="round" stroke-linejoin="round"/>
<path d="M532.1 377.13H522.28V518.39H532.1V377.13Z" fill="#263238" stroke="#263238" stroke-linecap="round" stroke-linejoin="round"/>
<path d="M572.14 377.13H562.32V518.39H572.14V377.13Z" fill="white" stroke="#263238" stroke-linecap="round" stroke-linejoin="round"/>
<path d="M578.93 377.13H569.11V518.39H578.93V377.13Z" fill="#263238" stroke="#263238" stroke-linecap="round" stroke-linejoin="round"/>
<path d="M588.75 371.84H358.36V383.93H588.75V371.84Z" fill="white" stroke="#263238" stroke-linecap="round" stroke-linejoin="round"/>
<path d="M588.76 371.84H526.06V383.93H588.76V371.84Z" fill="#263238" stroke="#263238" stroke-linecap="round" stroke-linejoin="round"/>
<path d="M592.53 368.82H350.81V374.86H592.53V368.82Z" fill="white" stroke="#263238" stroke-linecap="round" stroke-linejoin="round"/>
<path d="M592.53 368.82H532.1V374.86H592.53V368.82Z" fill="#263238" stroke="#263238" stroke-linecap="round" stroke-linejoin="round"/>
<path d="M455.91 312.87H439.81V307.43H455.91C456.605 307.43 457.271 307.706 457.763 308.197C458.254 308.689 458.53 309.355 458.53 310.05V310.3C458.517 310.986 458.235 311.64 457.745 312.12C457.255 312.601 456.596 312.87 455.91 312.87V312.87Z" fill="white" stroke="#263238" stroke-linecap="round" stroke-linejoin="round"/>
<path d="M373.23 296.61H449.23V360.69C449.23 362.812 448.387 364.847 446.887 366.347C445.387 367.847 443.352 368.69 441.23 368.69H381.23C379.108 368.69 377.074 367.847 375.573 366.347C374.073 364.847 373.23 362.812 373.23 360.69V296.61V296.61Z" fill="white" stroke="#263238" stroke-linecap="round" stroke-linejoin="round"/>
<path d="M440.14 296.61V360.37C440.14 362.571 439.266 364.682 437.709 366.239C436.153 367.796 434.041 368.67 431.84 368.67H438C440.201 368.667 442.31 367.792 443.866 366.236C445.422 364.68 446.297 362.57 446.3 360.37V296.61H440.14Z" fill="#263238" stroke="#263238" stroke-linecap="round" stroke-linejoin="round"/>
<path d="M385 296.61V360.37C385 364.95 391.65 368.67 396.23 368.67H390.11C387.908 368.67 385.796 367.796 384.238 366.24C382.679 364.683 381.803 362.572 381.8 360.37V296.61H385Z" fill="#263238" stroke="#263238" stroke-linecap="round" stroke-linejoin="round"/>
<path d="M448.7 293.96H373.74C371.984 293.96 370.56 295.384 370.56 297.14V297.39C370.56 299.146 371.984 300.57 373.74 300.57H448.7C450.456 300.57 451.88 299.146 451.88 297.39V297.14C451.88 295.384 450.456 293.96 448.7 293.96Z" fill="white" stroke="#263238" stroke-linecap="round" stroke-linejoin="round"/>
<path d="M363.81 307.43H379.91V312.87H363.81C363.115 312.87 362.449 312.594 361.957 312.103C361.466 311.611 361.19 310.945 361.19 310.25V310C361.203 309.314 361.485 308.66 361.975 308.18C362.465 307.699 363.124 307.43 363.81 307.43V307.43Z" fill="white" stroke="#263238" stroke-linecap="round" stroke-linejoin="round"/>
<path d="M373.17 307.43H389.27V312.87H373.17C372.826 312.87 372.485 312.802 372.167 312.671C371.85 312.539 371.561 312.346 371.317 312.103C371.074 311.859 370.881 311.57 370.749 311.253C370.618 310.935 370.55 310.594 370.55 310.25V310C370.563 309.314 370.845 308.66 371.335 308.18C371.825 307.699 372.484 307.43 373.17 307.43V307.43Z" fill="white" stroke="#263238" stroke-linecap="round" stroke-linejoin="round"/>
<path d="M448.99 298.24H373.44V299.26H448.99V298.24Z" fill="#263238" stroke="#263238" stroke-linecap="round" stroke-linejoin="round"/>
<path d="M412.39 271.78C410.94 270.01 409.24 268.53 409.24 265.07C409.189 263.252 409.796 261.476 410.95 260.07" stroke="#263238" stroke-linecap="round" stroke-linejoin="round"/>
<path d="M409.24 289.2C409.24 283.2 414.4 283.2 414.4 277.14C414.404 276.419 414.316 275.7 414.14 275" stroke="#263238" stroke-linecap="round" stroke-linejoin="round"/>
<path d="M427.83 266.74C427.451 265.717 427.268 264.631 427.29 263.54" stroke="#263238" stroke-linecap="round" stroke-linejoin="round"/>
<path d="M427.29 289.2C427.29 282.79 432.44 282.79 432.44 276.37C432.44 272.79 430.84 271.21 429.44 269.37" stroke="#263238" stroke-linecap="round" stroke-linejoin="round"/>
<path d="M388.62 266.07C388.511 265.486 388.458 264.894 388.46 264.3C388.443 263.278 388.612 262.261 388.96 261.3" stroke="#263238" stroke-linecap="round" stroke-linejoin="round"/>
<path d="M388.46 289.2C388.46 282.98 393.62 282.98 393.62 276.76C393.626 275.615 393.406 274.481 392.972 273.422C392.538 272.363 391.898 271.401 391.09 270.59" stroke="#263238" stroke-linecap="round" stroke-linejoin="round"/>
<path d="M559.93 312.87H543.83V307.43H559.93C560.625 307.43 561.291 307.706 561.783 308.197C562.274 308.689 562.55 309.355 562.55 310.05V310.3C562.537 310.986 562.255 311.64 561.765 312.12C561.275 312.601 560.616 312.87 559.93 312.87Z" fill="white" stroke="#263238" stroke-linecap="round" stroke-linejoin="round"/>
<path d="M477.26 296.61H553.26V360.69C553.26 362.812 552.417 364.847 550.917 366.347C549.417 367.847 547.382 368.69 545.26 368.69H485.26C483.138 368.69 481.103 367.847 479.603 366.347C478.103 364.847 477.26 362.812 477.26 360.69V296.61Z" fill="white" stroke="#263238" stroke-linecap="round" stroke-linejoin="round"/>
<path d="M544.17 296.61V360.37C544.167 362.572 543.291 364.683 541.733 366.24C540.174 367.796 538.062 368.67 535.86 368.67H542C544.201 368.67 546.313 367.796 547.869 366.239C549.426 364.682 550.3 362.571 550.3 360.37V296.61H544.17Z" fill="#263238" stroke="#263238" stroke-linecap="round" stroke-linejoin="round"/>
<path d="M489 296.61V360.37C489 364.95 495.64 368.67 500.23 368.67H494.1C491.9 368.667 489.79 367.792 488.234 366.236C486.678 364.68 485.803 362.57 485.8 360.37V296.61H489Z" fill="#263238" stroke="#263238" stroke-linecap="round" stroke-linejoin="round"/>
<path d="M552.72 293.96H477.76C476.004 293.96 474.58 295.384 474.58 297.14V297.39C474.58 299.146 476.004 300.57 477.76 300.57H552.72C554.476 300.57 555.9 299.146 555.9 297.39V297.14C555.9 295.384 554.476 293.96 552.72 293.96Z" fill="white" stroke="#263238" stroke-linecap="round" stroke-linejoin="round"/>
<path d="M467.83 307.43H483.93V312.87H467.83C467.135 312.87 466.469 312.594 465.977 312.103C465.486 311.611 465.21 310.945 465.21 310.25V310C465.223 309.314 465.505 308.66 465.995 308.18C466.485 307.699 467.144 307.43 467.83 307.43V307.43Z" fill="white" stroke="#263238" stroke-linecap="round" stroke-linejoin="round"/>
<path d="M477.19 307.43H493.29V312.87H477.19C476.495 312.87 475.829 312.594 475.337 312.103C474.846 311.611 474.57 310.945 474.57 310.25V310C474.583 309.314 474.865 308.66 475.355 308.18C475.845 307.699 476.504 307.43 477.19 307.43V307.43Z" fill="white" stroke="#263238" stroke-linecap="round" stroke-linejoin="round"/>
<path d="M553.02 298.24H477.47V299.26H553.02V298.24Z" fill="#263238" stroke="#263238" stroke-linecap="round" stroke-linejoin="round"/>
<path d="M515.42 281.08H515.3C514.405 281.08 513.68 281.805 513.68 282.7V287.31C513.68 288.205 514.405 288.93 515.3 288.93H515.42C516.315 288.93 517.04 288.205 517.04 287.31V282.7C517.04 281.805 516.315 281.08 515.42 281.08Z" fill="#5C5C5C" stroke="#263238" stroke-linecap="round" stroke-linejoin="round"/>
<path d="M477.88 294L481.12 291.74C484.948 289.06 489.507 287.621 494.18 287.62H536.78C542.677 287.62 548.345 289.907 552.59 294H477.88Z" fill="#5C5C5C" stroke="#263238" stroke-linecap="round" stroke-linejoin="round"/>
<path d="M283.66 237.49C283.66 237.49 287.81 244.6 289.58 248.74C291.35 252.88 293.73 258.22 291.36 257.03C288.99 255.84 286.62 254.37 284.55 254.37C282.48 254.37 281.89 256.74 281 254.96C280.11 253.18 283.66 237.49 283.66 237.49Z" fill="#E47A40" stroke="#263238" stroke-linecap="round" stroke-linejoin="round"/>
<path d="M277.45 492.71C277.45 492.71 291.66 501 297 502.78C302.34 504.56 305.88 507.78 306.17 511.07L306.47 514.32L306.17 516.69H241.32C240.334 514.243 239.831 511.628 239.84 508.99C239.84 504.55 242.21 503.66 243.4 500.99C244.59 498.32 273 490.64 273 490.64L277.45 492.71Z" fill="#E47A40" stroke="#263238" stroke-linecap="round" stroke-linejoin="round"/>
<path d="M240.46 514C240.676 514.908 240.963 515.798 241.32 516.66H306.16L306.46 514.29L306.16 511.04C305.87 507.78 302.32 504.52 296.99 502.75V514H240.46Z" fill="white" stroke="#263238" stroke-linecap="round" stroke-linejoin="round"/>
<path d="M293.43 351.48C293.43 351.48 295.51 355.03 293.73 356.48C291.95 357.93 291.06 358.56 291.06 358.56C292.292 361.038 292.607 363.872 291.95 366.56C290.77 370.71 285.44 388.17 285.44 396.46C285.44 404.75 286.03 425.18 282.77 436.73C279.51 448.28 273 473.44 273.89 479.07C274.78 484.7 278.04 487.36 278.63 488.84C279.133 490.672 279.332 492.574 279.22 494.47C279.22 496.24 273 504.24 262.64 508.08C252.28 511.92 243.64 512.53 241.64 511.93C239.64 511.33 237.5 507.79 237.79 504.83C238.08 501.87 239 501.3 239 499.22C239 497.14 234.26 477.02 234.85 465.77C235.44 454.52 244.92 437.34 244.92 429.05C244.92 420.76 241.92 406.26 239.59 397.67C237.26 389.08 236.59 387.31 236.59 386.42C236.59 385.53 233.33 378.72 231.26 373.09C229.19 367.46 226.26 362.14 226.26 356.22C226.299 352.258 226.597 348.303 227.15 344.38L229.82 337.57C229.82 337.57 291.1 346.15 291.99 346.15C292.88 346.15 293.43 351.48 293.43 351.48Z" fill="#263238" stroke="#263238" stroke-linecap="round" stroke-linejoin="round"/>
<path d="M298.66 324.23C298.66 324.23 314.29 316.42 316.83 313.67C319.37 310.92 316.83 304.59 317.67 304.59C318.51 304.59 323.58 302.48 324.01 300.59C324.44 298.7 323.58 295.52 324.43 295.52C325.28 295.52 334.99 293.2 338.79 293.41C342.59 293.62 352.73 294.04 356.11 289.19C359.49 284.34 362 280.1 362 278.83C362 277.56 361 277.2 358.85 278.65C356.7 280.1 338.98 280.52 334.12 280.52C329.26 280.52 327.37 279.88 325.25 281.52C323.13 283.16 315.12 291.24 314.06 291.24C313 291.24 309.63 290.82 307.73 292.93C306.226 291.96 304.444 291.514 302.66 291.66C300.12 292.08 288.51 298.42 288.51 298.42L298.66 324.23Z" fill="#9E9E9E" stroke="#263238" stroke-linecap="round" stroke-linejoin="round"/>
<path d="M283.07 250.22C283.329 250.594 283.57 250.981 283.79 251.38C285.713 254.879 286.974 258.703 287.51 262.66C288.7 270.66 289.29 285.46 291.95 295.82C294.61 306.18 304.39 321.87 302.95 334.9C301.51 347.93 297.62 352.07 290.81 352.37C284 352.67 236.33 342.6 229.23 340.53C222.13 338.46 220.64 339.64 221.23 332.83C221.82 326.02 229.23 301.44 229.52 292.56C229.81 283.68 223.3 264.14 232.52 249.93C241.74 235.72 251.77 226.24 257.39 227.43C263.01 228.62 279.22 239.86 283.07 250.22Z" fill="white" stroke="#263238" stroke-linecap="round" stroke-linejoin="round"/>
<path d="M269.45 163.18C269.45 163.18 279.81 158.74 288.1 159.92C296.39 161.1 304.68 167.62 306.46 172.06C308.24 176.5 309.72 178.57 309.72 181.53C309.72 184.49 309.72 185.38 309.42 186.27L309.13 187.16C309.13 187.16 312.13 194.27 312.38 196.63C312.63 198.99 312.38 200.19 310.31 200.19H308.24C308.24 200.19 305.57 217.95 303.24 220.02C300.91 222.09 293.77 222.39 293.77 222.39C293.77 222.39 286.96 225.39 285.48 234.83C284 244.27 282.22 255.26 282.22 255.26C282.22 255.26 267.12 227.72 265.35 221.8C263.58 215.88 262.68 211.73 262.68 211.73C264.372 208.945 265.398 205.807 265.68 202.56C265.98 197.56 259.46 186.86 261.24 176.8C263.02 166.74 269.45 163.18 269.45 163.18Z" fill="#999999" stroke="#263238" stroke-linecap="round" stroke-linejoin="round"/>
<path d="M303.2 220C305.04 218.4 307.05 207.37 307.87 202.49C305.94 201.02 296.95 199.6 293.43 201.35C289.91 203.1 286.03 206.09 285.43 205.2C284.83 204.31 282 191 284.05 188.64C286.1 186.28 291.16 186.26 289.97 182.41C288.78 178.56 283.66 180.65 283.37 177.41C283.08 174.17 286.37 171.19 282.48 170.31C279.806 169.838 277.056 170.041 274.48 170.9C273.6 170.9 271.82 169.71 271.82 166.75C271.821 165.969 271.556 165.211 271.069 164.6C270.582 163.989 269.902 163.563 269.14 163.39C267.83 164.24 262.71 168.06 261.14 176.82C259.36 186.88 265.88 197.54 265.58 202.58C265.339 205.564 264.463 208.462 263.01 211.08C264.379 211.682 265.908 211.816 267.36 211.46C270.36 210.57 270.02 207.91 270.91 205.83C271.8 203.75 274.76 203.17 273.28 199.32C271.8 195.47 275.65 191.32 277.42 191.62C279.19 191.92 280.98 194.88 280.09 196.62C279.2 198.36 277.09 206.98 277.09 211.42C277.09 215.86 278.27 219.71 280.94 221.19C283.61 222.67 287.31 224 289.94 225.19C290.994 224.05 292.244 223.109 293.63 222.41C293.63 222.41 300.84 222.1 303.2 220Z" fill="#263238" stroke="#263238" stroke-linecap="round" stroke-linejoin="round"/>
<path d="M304.09 188.34C304.09 189.49 303.69 190.42 303.2 190.42C302.71 190.42 302.32 189.49 302.32 188.34C302.32 187.19 302.71 186.27 303.2 186.27C303.69 186.27 304.09 187.2 304.09 188.34Z" fill="#263238"/>
<path d="M298.76 183C300.269 182.155 301.856 181.458 303.5 180.92C304.98 180.63 307.35 181.81 307.05 179.44C306.75 177.07 303.8 177.96 300.24 178.85C296.68 179.74 296.69 181.83 298.76 183Z" fill="white" stroke="#263238" stroke-linecap="round" stroke-linejoin="round"/>
<path d="M294.91 187.75C295.846 188.292 296.857 188.693 297.91 188.94" stroke="#263238" stroke-linecap="round" stroke-linejoin="round"/>
<path d="M297.87 190.12C297.362 190.481 296.778 190.722 296.163 190.824C295.548 190.926 294.918 190.887 294.32 190.71" stroke="#263238" stroke-linecap="round" stroke-linejoin="round"/>
<path d="M293.74 176.78C293.74 176.78 298.33 173.11 304.07 174.03" stroke="#263238" stroke-linecap="round" stroke-linejoin="round"/>
<path d="M296.26 171C296.26 171 302 169.4 304.53 171" stroke="#263238" stroke-linecap="round" stroke-linejoin="round"/>
<path d="M274.78 168.51C273.89 168.51 272.12 167.32 272.12 164.36C272.12 161.4 268.56 159.63 265.9 161.99C263.24 164.35 263.83 165.84 261.16 166.43C258.49 167.02 252.87 165.25 251.98 170.88C251.09 176.51 252.28 177.98 251.09 179.46C249.9 180.94 243.69 183.61 243.99 188.64C244.29 193.67 247.84 193.64 246.65 196.64C245.46 199.64 242.51 203.45 246.95 206.41C251.39 209.37 258.79 203.16 259.68 205.53C260.57 207.9 264.68 209.97 267.68 209.08C270.68 208.19 270.35 205.53 271.24 203.45C272.13 201.37 275.09 200.79 273.61 196.94C272.13 193.09 275.97 188.94 277.75 189.24C279.53 189.54 281.3 192.5 280.42 194.24C279.54 195.98 277.42 204.6 277.42 209.04C277.42 213.48 278.6 217.33 281.26 218.81C283.92 220.29 288.07 221.81 290.74 222.96C293.41 224.11 301.69 227.69 304.36 225.32C307.03 222.95 308.5 217.32 308.5 212C308.5 206.68 309.98 201.64 308.21 200.16C306.44 198.68 297.21 197.16 293.7 198.97C290.19 200.78 286.3 203.71 285.7 202.82C285.1 201.93 283.03 192.46 285.1 190.09C287.17 187.72 292.21 184.76 291.02 180.91C289.83 177.06 283.92 178.25 283.62 174.99C283.32 171.73 286.62 168.77 282.73 167.89C280.07 167.435 277.338 167.648 274.78 168.51V168.51Z" fill="white" stroke="#263238" stroke-linecap="round" stroke-linejoin="round"/>
<path d="M296.1 203.15C296.984 204.474 298.253 205.495 299.735 206.076C301.217 206.657 302.842 206.77 304.39 206.4" stroke="#263238" stroke-linecap="round" stroke-linejoin="round"/>
<path d="M280.88 193.31C280.88 193.31 280.42 189.18 275.37 188.49C270.32 187.8 269.86 196.06 271.93 199.97C274 203.88 276.75 201.8 276.75 201.8" fill="#999999"/>
<path d="M280.88 193.31C280.88 193.31 280.42 189.18 275.37 188.49C270.32 187.8 269.86 196.06 271.93 199.97C274 203.88 276.75 201.8 276.75 201.8" stroke="#263238" stroke-linecap="round" stroke-linejoin="round"/>
<path d="M262.05 208.77C262.05 208.77 272.71 233.64 275.67 240.16C278.63 246.68 283.07 251.41 283.07 257.92C283.07 264.43 285.74 278.65 285.74 292.86C285.74 307.07 289.29 327.5 288.1 335.49C286.91 343.48 284 349.41 284 352.67C284 355.93 284.29 360.67 282.81 360.67C281.33 360.67 260.02 359.19 244.32 355.34C228.62 351.49 219.45 349.71 219.45 347.34C219.45 344.97 220.34 340.53 220.34 339.34C220.34 338.15 216.79 335.79 218.57 327.8C220.35 319.81 222.12 294.93 222.71 277.17C223.3 259.41 230.41 243.71 235.15 236.6C239.89 229.49 248.15 224.47 248.15 224.47C248.15 224.47 243.42 218.84 249.04 215.29C253.202 212.785 257.552 210.605 262.05 208.77V208.77Z" fill="#E47A40" stroke="#263238" stroke-linecap="round" stroke-linejoin="round"/>
<path d="M223.56 339.23C241.317 346.84 260.411 350.841 279.73 351" stroke="#263238" stroke-linecap="round" stroke-linejoin="round"/>
<path d="M230.31 341.91L229.1 350.04" stroke="#263238" stroke-linecap="round" stroke-linejoin="round"/>
<path d="M239.25 345.57L238.03 352.07" stroke="#263238" stroke-linecap="round" stroke-linejoin="round"/>
<path d="M249 348L248.19 354.5" stroke="#263238" stroke-linecap="round" stroke-linejoin="round"/>
<path d="M257.94 349.63L257.53 355.32" stroke="#263238" stroke-linecap="round" stroke-linejoin="round"/>
<path d="M268.09 350.85V356.94" stroke="#263238" stroke-linecap="round" stroke-linejoin="round"/>
<path d="M275.67 240.16C272.67 233.64 262.05 208.77 262.05 208.77C257.555 210.605 253.209 212.785 249.05 215.29C243.43 218.84 248.16 224.47 248.16 224.47C248.16 224.47 258.23 239.27 261.49 246.08C264.75 252.89 263.86 251.41 266.82 256.15C269.78 260.89 271.26 264.73 272.15 263.25C273.04 261.77 280.44 254.66 282.21 255.25C282.42 255.32 282.64 255.38 282.88 255.44C281.93 250.14 278.24 245.82 275.67 240.16Z" fill="#E47A40" stroke="#263238" stroke-linecap="round" stroke-linejoin="round"/>
<path d="M316.23 270.65H372.23C372.23 270.65 367.49 276.87 363.05 279.54C358.61 282.21 352.69 282.54 352.69 282.54H337.84C337.84 282.54 326 282.2 316.23 270.65Z" fill="#9AAE7A" stroke="#263238" stroke-linecap="round" stroke-linejoin="round"/>
<path d="M314.45 286.05C316.948 283.857 319.051 281.253 320.67 278.35C321.492 276.638 322.692 275.135 324.18 273.955C325.668 272.775 327.405 271.949 329.26 271.54C332.26 270.95 341.99 270.06 343.77 269.17C345.55 268.28 346.77 272.43 345.84 273.91C344.91 275.39 341.1 276.57 338.73 276.91C337.196 277.191 335.822 278.037 334.88 279.28C336.217 280.312 337.718 281.114 339.32 281.65C341.99 282.54 346.73 282.83 348.8 281.65C350.87 280.47 358.27 275.13 358.87 278.65C359.47 282.17 356.2 283.65 354.42 285.75C352.64 287.85 349.42 291.67 348.21 291.97C347 292.27 337.55 292.27 331.63 292.86C325.71 293.45 318.63 297.6 318.63 297.6L313.3 286.05H314.45Z" fill="#999999" stroke="#263238" stroke-linecap="round" stroke-linejoin="round"/>
<path d="M303.5 290.49C303.5 290.49 312.97 284.27 314.45 286.05C315.93 287.83 323.04 295.52 321.26 298.78C319.48 302.04 307.94 307.37 307.94 307.37L303.5 290.49Z" fill="#E47A40" stroke="#263238" stroke-linecap="round" stroke-linejoin="round"/>
<path d="M258.79 246.38C258.79 246.38 265.6 253.78 268.27 260.59C270.94 267.4 277.15 286.59 278.04 288.12C278.93 289.65 280.41 292.27 280.41 292.27C280.41 292.27 295.8 288.12 299.06 287.83C302.32 287.54 305.57 290.49 307.64 294.34C309.71 298.19 316.53 309.73 313.57 312.7C310.61 315.67 284.85 329 277.15 331.94C269.45 334.88 261.75 333.12 258.15 326.94C254.55 320.76 239.5 286.38 236.54 278.38C233.58 270.38 233.87 263.87 235.06 261.5" fill="#E47A40"/>
<path d="M258.79 246.38C258.79 246.38 265.6 253.78 268.27 260.59C270.94 267.4 277.15 286.59 278.04 288.12C278.93 289.65 280.41 292.27 280.41 292.27C280.41 292.27 295.8 288.12 299.06 287.83C302.32 287.54 305.57 290.49 307.64 294.34C309.71 298.19 316.53 309.73 313.57 312.7C310.61 315.67 284.85 329 277.15 331.94C269.45 334.88 261.75 333.12 258.15 326.94C254.55 320.76 239.5 286.38 236.54 278.38C233.58 270.38 233.87 263.87 235.06 261.5" stroke="#263238" stroke-linecap="round" stroke-linejoin="round"/>
<path d="M269.45 311.81C270.93 302.33 280.45 292.27 280.45 292.27C280.45 292.27 269.79 297.6 266.23 302.04" stroke="#263238" stroke-linecap="round" stroke-linejoin="round"/>
<path d="M189.99 518.38H646.65" stroke="#263238" stroke-linecap="round" stroke-linejoin="round"/>
</svg>
