<svg width="551" height="477" viewBox="0 0 551 477" fill="none" xmlns="http://www.w3.org/2000/svg">
<g clip-path="url(#clip0)">
<path opacity="0.7" d="M473.468 71.5815C473.468 71.5815 419.719 17.3108 342.589 30.2892C265.46 43.2676 228.256 105.566 181.177 146.043C156.511 167.232 122.325 172.305 93.9191 187.565C2.983 236.383 4.3713 368.738 66.3423 425.426C119.995 474.494 191.26 486.821 287.231 465.507C383.202 444.193 451.552 432.559 517.204 348.543C582.856 264.526 539.143 144.44 473.468 71.5815Z" fill="#9AAE7A"/>
<path d="M461.473 46.3994C461.473 46.3994 406.748 -8.85758 328.216 4.35669C249.685 17.571 211.805 81.0015 163.871 122.215C138.756 143.788 103.949 148.954 75.0266 164.491C-17.5621 214.197 -16.1486 348.956 46.9487 406.674C101.577 456.635 174.137 469.186 271.852 447.484C369.567 425.783 439.16 413.938 506.005 328.394C572.85 242.85 528.342 120.582 461.473 46.3994Z" fill="#738F48"/>
<path d="M314.275 434.98C431.512 434.98 526.55 429.788 526.55 423.384C526.55 416.98 431.512 411.788 314.275 411.788C197.039 411.788 102 416.98 102 423.384C102 429.788 197.039 434.98 314.275 434.98Z" fill="#C0D69E"/>
<path opacity="0.5" d="M314.275 434.98C431.512 434.98 526.55 429.788 526.55 423.384C526.55 416.98 431.512 411.788 314.275 411.788C197.039 411.788 102 416.98 102 423.384C102 429.788 197.039 434.98 314.275 434.98Z" fill="#C0D69E"/>
<path d="M483.5 194.383H109.201V215.409H504.368" stroke="white" stroke-miterlimit="10"/>
<path d="M483.5 258.511H109.201V279.537H504.368" stroke="white" stroke-miterlimit="10"/>
<path d="M483.5 322.64H109.201V343.665H504.368" stroke="white" stroke-miterlimit="10"/>
<path d="M483.5 387.294H109.201V408.319H504.368" stroke="white" stroke-miterlimit="10"/>
<path d="M126.957 169.499H112.586V194.73H126.957V169.499Z" stroke="white" stroke-miterlimit="10"/>
<path d="M126.957 162.14H112.586V169.499H126.957V162.14Z" stroke="white" stroke-miterlimit="10"/>
<path d="M143.778 169.499H129.407V194.73H143.778V169.499Z" stroke="white" stroke-miterlimit="10"/>
<path d="M143.778 162.14H129.407V169.499H143.778V162.14Z" stroke="white" stroke-miterlimit="10"/>
<path d="M160.599 169.499H146.227V194.73H160.599V169.499Z" stroke="white" stroke-miterlimit="10"/>
<path d="M160.599 162.14H146.227V169.499H160.599V162.14Z" stroke="white" stroke-miterlimit="10"/>
<path d="M177.419 169.499H163.048V194.73H177.419V169.499Z" stroke="white" stroke-miterlimit="10"/>
<path d="M177.419 162.14H163.048V169.499H177.419V162.14Z" stroke="white" stroke-miterlimit="10"/>
<path d="M194.24 169.499H179.869V194.73H194.24V169.499Z" stroke="white" stroke-miterlimit="10"/>
<path d="M194.24 162.14H179.869V169.499H194.24V162.14Z" stroke="white" stroke-miterlimit="10"/>
<path d="M211.06 169.499H196.689V194.73H211.06V169.499Z" stroke="white" stroke-miterlimit="10"/>
<path d="M211.06 162.14H196.689V169.499H211.06V162.14Z" stroke="white" stroke-miterlimit="10"/>
<path d="M227.881 169.499H213.51V194.73H227.881V169.499Z" stroke="white" stroke-miterlimit="10"/>
<path d="M227.881 162.14H213.51V169.499H227.881V162.14Z" stroke="white" stroke-miterlimit="10"/>
<path d="M244.701 169.499H230.33V194.73H244.701V169.499Z" stroke="white" stroke-miterlimit="10"/>
<path d="M244.701 162.14H230.33V169.499H244.701V162.14Z" stroke="white" stroke-miterlimit="10"/>
<path d="M261.522 169.499H247.151V194.73H261.522V169.499Z" stroke="white" stroke-miterlimit="10"/>
<path d="M261.522 162.14H247.151V169.499H261.522V162.14Z" stroke="white" stroke-miterlimit="10"/>
<path d="M278.342 169.499H263.971V194.73H278.342V169.499Z" stroke="white" stroke-miterlimit="10"/>
<path d="M278.342 162.14H263.971V169.499H278.342V162.14Z" stroke="white" stroke-miterlimit="10"/>
<path d="M295.163 169.499H280.792V194.73H295.163V169.499Z" stroke="white" stroke-miterlimit="10"/>
<path d="M295.163 162.14H280.792V169.499H295.163V162.14Z" stroke="white" stroke-miterlimit="10"/>
<path d="M311.983 169.499H297.612V194.73H311.983V169.499Z" stroke="white" stroke-miterlimit="10"/>
<path d="M311.983 162.14H297.612V169.499H311.983V162.14Z" stroke="white" stroke-miterlimit="10"/>
<path d="M328.804 169.499H314.433V194.73H328.804V169.499Z" stroke="white" stroke-miterlimit="10"/>
<path d="M328.804 162.14H314.433V169.499H328.804V162.14Z" stroke="white" stroke-miterlimit="10"/>
<path d="M345.624 169.499H331.253V194.73H345.624V169.499Z" stroke="white" stroke-miterlimit="10"/>
<path d="M345.624 162.14H331.253V169.499H345.624V162.14Z" stroke="white" stroke-miterlimit="10"/>
<path d="M362.445 169.499H348.074V194.73H362.445V169.499Z" stroke="white" stroke-miterlimit="10"/>
<path d="M362.445 162.14H348.074V169.499H362.445V162.14Z" stroke="white" stroke-miterlimit="10"/>
<path d="M379.266 169.499H364.894V194.73H379.266V169.499Z" stroke="white" stroke-miterlimit="10"/>
<path d="M379.266 162.14H364.894V169.499H379.266V162.14Z" stroke="white" stroke-miterlimit="10"/>
<path d="M396.086 169.499H381.715V194.73H396.086V169.499Z" stroke="white" stroke-miterlimit="10"/>
<path d="M396.086 162.14H381.715V169.499H396.086V162.14Z" stroke="white" stroke-miterlimit="10"/>
<path d="M412.906 169.499H398.535V194.73H412.906V169.499Z" stroke="white" stroke-miterlimit="10"/>
<path d="M412.906 162.14H398.535V169.499H412.906V162.14Z" stroke="white" stroke-miterlimit="10"/>
<path d="M429.727 169.499H415.356V194.73H429.727V169.499Z" stroke="white" stroke-miterlimit="10"/>
<path d="M429.727 162.14H415.356V169.499H429.727V162.14Z" stroke="white" stroke-miterlimit="10"/>
<path d="M446.548 169.499H432.177V194.73H446.548V169.499Z" stroke="white" stroke-miterlimit="10"/>
<path d="M446.548 162.14H432.177V169.499H446.548V162.14Z" stroke="white" stroke-miterlimit="10"/>
<path d="M463.368 169.499H448.997V194.73H463.368V169.499Z" stroke="white" stroke-miterlimit="10"/>
<path d="M463.368 162.14H448.997V169.499H463.368V162.14Z" stroke="white" stroke-miterlimit="10"/>
<path d="M120.65 237.139H136.766C138.626 237.139 140.409 237.877 141.724 239.192C143.039 240.507 143.778 242.291 143.778 244.151V258.164H113.638V244.14C113.64 242.282 114.38 240.501 115.695 239.189C117.01 237.876 118.792 237.139 120.65 237.139V237.139Z" stroke="white" stroke-miterlimit="10"/>
<path d="M137.47 229.075H120.65V237.139H137.47V229.075Z" stroke="white" stroke-miterlimit="10"/>
<path d="M120.65 301.961H136.766C138.626 301.961 140.409 302.7 141.724 304.015C143.039 305.33 143.778 307.113 143.778 308.973V322.986H113.638V308.973C113.638 307.113 114.376 305.33 115.691 304.015C117.006 302.7 118.79 301.961 120.65 301.961V301.961Z" stroke="white" stroke-miterlimit="10"/>
<path d="M137.47 293.908H120.65V301.971H137.47V293.908Z" stroke="white" stroke-miterlimit="10"/>
<path d="M162.701 301.961H178.817C180.677 301.961 182.461 302.7 183.776 304.015C185.091 305.33 185.829 307.113 185.829 308.973V322.986H155.689V308.973C155.689 307.113 156.428 305.33 157.743 304.015C159.058 302.7 160.841 301.961 162.701 301.961V301.961Z" stroke="white" stroke-miterlimit="10"/>
<path d="M179.522 293.908H162.701V301.971H179.522V293.908Z" stroke="white" stroke-miterlimit="10"/>
<path d="M204.752 301.961H220.869C222.728 301.961 224.512 302.7 225.827 304.015C227.142 305.33 227.881 307.113 227.881 308.973V322.986H197.74V308.973C197.74 307.113 198.479 305.33 199.794 304.015C201.109 302.7 202.893 301.961 204.752 301.961V301.961Z" stroke="white" stroke-miterlimit="10"/>
<path d="M221.573 293.908H204.752V301.971H221.573V293.908Z" stroke="white" stroke-miterlimit="10"/>
<path d="M246.804 301.961H262.92C264.78 301.961 266.563 302.7 267.878 304.015C269.193 305.33 269.932 307.113 269.932 308.973V322.986H239.792V308.973C239.792 307.113 240.531 305.33 241.846 304.015C243.161 302.7 244.944 301.961 246.804 301.961V301.961Z" stroke="white" stroke-miterlimit="10"/>
<path d="M263.624 293.908H246.804V301.971H263.624V293.908Z" stroke="white" stroke-miterlimit="10"/>
<path d="M288.855 301.961H304.971C306.831 301.961 308.615 302.7 309.93 304.015C311.245 305.33 311.983 307.113 311.983 308.973V322.986H281.843V308.973C281.843 307.113 282.582 305.33 283.897 304.015C285.212 302.7 286.995 301.961 288.855 301.961V301.961Z" stroke="white" stroke-miterlimit="10"/>
<path d="M305.676 293.908H288.855V301.971H305.676V293.908Z" stroke="white" stroke-miterlimit="10"/>
<path d="M330.906 301.961H347.023C348.882 301.961 350.666 302.7 351.981 304.015C353.296 305.33 354.035 307.113 354.035 308.973V322.986H323.894V308.973C323.894 307.113 324.633 305.33 325.948 304.015C327.263 302.7 329.047 301.961 330.906 301.961V301.961Z" stroke="white" stroke-miterlimit="10"/>
<path d="M347.727 293.908H330.906V301.971H347.727V293.908Z" stroke="white" stroke-miterlimit="10"/>
<path d="M154.291 237.139H170.407C172.267 237.139 174.05 237.877 175.365 239.192C176.68 240.507 177.419 242.291 177.419 244.151V258.164H147.279V244.14C147.282 242.282 148.022 240.501 149.336 239.189C150.651 237.876 152.433 237.139 154.291 237.139V237.139Z" stroke="white" stroke-miterlimit="10"/>
<path d="M171.111 229.075H154.291V237.139H171.111V229.075Z" stroke="white" stroke-miterlimit="10"/>
<path d="M187.932 237.139H204.048C205.908 237.139 207.691 237.877 209.006 239.192C210.321 240.507 211.06 242.291 211.06 244.151V258.164H180.92V244.14C180.923 242.282 181.663 240.501 182.977 239.189C184.292 237.876 186.074 237.139 187.932 237.139V237.139Z" stroke="white" stroke-miterlimit="10"/>
<path d="M204.752 229.075H187.932V237.139H204.752V229.075Z" stroke="white" stroke-miterlimit="10"/>
<path d="M221.573 237.139H237.689C239.549 237.139 241.332 237.877 242.647 239.192C243.962 240.507 244.701 242.291 244.701 244.151V258.164H214.561V244.14C214.564 242.282 215.304 240.501 216.618 239.189C217.933 237.876 219.715 237.139 221.573 237.139V237.139Z" stroke="white" stroke-miterlimit="10"/>
<path d="M238.393 229.075H221.573V237.139H238.393V229.075Z" stroke="white" stroke-miterlimit="10"/>
<path d="M255.214 237.139H271.33C273.19 237.139 274.973 237.877 276.288 239.192C277.603 240.507 278.342 242.291 278.342 244.151V258.164H248.202V244.14C248.205 242.282 248.945 240.501 250.259 239.189C251.574 237.876 253.356 237.139 255.214 237.139V237.139Z" stroke="white" stroke-miterlimit="10"/>
<path d="M272.035 229.075H255.214V237.139H272.035V229.075Z" stroke="white" stroke-miterlimit="10"/>
<path d="M288.855 237.139H304.971C306.831 237.139 308.615 237.877 309.93 239.192C311.245 240.507 311.983 242.291 311.983 244.151V258.164H281.843V244.14C281.846 242.282 282.586 240.501 283.901 239.189C285.215 237.876 286.997 237.139 288.855 237.139V237.139Z" stroke="white" stroke-miterlimit="10"/>
<path d="M305.676 229.075H288.855V237.139H305.676V229.075Z" stroke="white" stroke-miterlimit="10"/>
<path d="M322.496 237.139H338.612C340.472 237.139 342.256 237.877 343.571 239.192C344.886 240.507 345.624 242.291 345.624 244.151V258.164H315.484V244.14C315.487 242.282 316.227 240.501 317.542 239.189C318.856 237.876 320.638 237.139 322.496 237.139V237.139Z" stroke="white" stroke-miterlimit="10"/>
<path d="M339.317 229.075H322.496V237.139H339.317V229.075Z" stroke="white" stroke-miterlimit="10"/>
<path d="M356.137 237.139H372.253C374.113 237.139 375.897 237.877 377.212 239.192C378.527 240.507 379.266 242.291 379.266 244.151V258.164H349.125V244.14C349.128 242.282 349.868 240.501 351.183 239.189C352.497 237.876 354.279 237.139 356.137 237.139V237.139Z" stroke="white" stroke-miterlimit="10"/>
<path d="M372.958 229.075H356.137V237.139H372.958V229.075Z" stroke="white" stroke-miterlimit="10"/>
<path d="M166.17 366.646H114.479V387.125H166.17V366.646Z" stroke="white" stroke-miterlimit="10"/>
<path d="M219.807 366.646H168.115V387.125H219.807V366.646Z" stroke="white" stroke-miterlimit="10"/>
<path d="M273.443 366.646H221.752V387.125H273.443V366.646Z" stroke="white" stroke-miterlimit="10"/>
<path d="M327.09 366.646H275.399V387.125H327.09V366.646Z" stroke="white" stroke-miterlimit="10"/>
<path d="M380.727 366.646H329.035V387.125H380.727V366.646Z" stroke="white" stroke-miterlimit="10"/>
<path d="M434.363 366.646H382.672V387.125H434.363V366.646Z" stroke="white" stroke-miterlimit="10"/>
<path d="M309.061 404.619L309.618 399.593L290.159 398.406L297.35 407.657C296.377 409.167 295.882 410.935 295.931 412.731C295.979 414.526 296.569 416.266 297.621 417.721C298.674 419.176 300.141 420.28 301.831 420.888C303.521 421.496 305.356 421.58 307.094 421.129C308.833 420.678 310.395 419.713 311.576 418.36C312.758 417.007 313.503 415.329 313.716 413.546C313.928 411.762 313.598 409.956 312.767 408.363C311.937 406.77 310.645 405.465 309.061 404.619V404.619Z" fill="#263238" stroke="#263238" stroke-linecap="round" stroke-linejoin="round"/>
<path d="M411.361 404.619L411.918 399.593L392.459 398.406L399.66 407.657C398.687 409.167 398.191 410.936 398.239 412.732C398.287 414.528 398.876 416.268 399.929 417.724C400.981 419.18 402.449 420.284 404.14 420.893C405.83 421.501 407.665 421.585 409.404 421.133C411.144 420.681 412.706 419.716 413.887 418.362C415.068 417.008 415.813 415.329 416.025 413.544C416.236 411.76 415.904 409.953 415.072 408.361C414.24 406.768 412.947 405.464 411.361 404.619V404.619Z" fill="#263238" stroke="#263238" stroke-linecap="round" stroke-linejoin="round"/>
<path d="M496.284 404.619L496.841 399.593L477.382 398.406L484.583 407.657C483.609 409.167 483.114 410.936 483.162 412.732C483.21 414.528 483.798 416.268 484.851 417.724C485.904 419.18 487.372 420.284 489.062 420.893C490.753 421.501 492.588 421.585 494.327 421.133C496.066 420.681 497.629 419.716 498.81 418.362C499.991 417.008 500.736 415.329 500.947 413.544C501.159 411.76 500.827 409.953 499.995 408.361C499.163 406.768 497.869 405.464 496.284 404.619V404.619Z" fill="#263238" stroke="#263238" stroke-linecap="round" stroke-linejoin="round"/>
<path d="M267.693 168.616H314.086C318.321 168.616 322.383 170.298 325.378 173.293C328.372 176.288 330.055 180.35 330.055 184.585V358.898H251.724V184.564C251.729 180.332 253.414 176.276 256.408 173.286C259.403 170.296 263.461 168.616 267.693 168.616Z" stroke="#263238" stroke-width="4" stroke-linecap="round" stroke-linejoin="round"/>
<path d="M251.724 207.776H330.076" stroke="#263238" stroke-width="4" stroke-linecap="round" stroke-linejoin="round"/>
<path d="M289.255 208.102V358.225" stroke="#263238" stroke-width="4" stroke-linecap="round" stroke-linejoin="round"/>
<path d="M373.967 308.531H286.237V378.442H373.967V308.531Z" fill="#9AAE7A" stroke="#263238" stroke-linecap="round" stroke-linejoin="round"/>
<path d="M373.967 308.531H341.072V378.442H373.967V308.531Z" fill="#9AAE7A" stroke="#263238" stroke-linecap="round" stroke-linejoin="round"/>
<path d="M319.826 315.386H306.811C303.78 315.386 301.323 317.84 301.323 320.868C301.323 323.896 303.78 326.351 306.811 326.351H319.826C322.857 326.351 325.314 323.896 325.314 320.868C325.314 317.84 322.857 315.386 319.826 315.386Z" fill="#263238" stroke="#263238" stroke-linecap="round" stroke-linejoin="round"/>
<path d="M435.656 308.531H347.927V378.442H435.656V308.531Z" fill="#9AAE7A" stroke="#263238" stroke-linecap="round" stroke-linejoin="round"/>
<path d="M435.895 309H403V378.91H435.895V309Z" fill="#9AAE7A" stroke="#263238" stroke-linecap="round" stroke-linejoin="round"/>
<path d="M381.505 315.386H368.49C365.459 315.386 363.002 317.84 363.002 320.868C363.002 323.896 365.459 326.351 368.49 326.351H381.505C384.536 326.351 386.993 323.896 386.993 320.868C386.993 317.84 384.536 315.386 381.505 315.386Z" fill="#263238" stroke="#263238" stroke-linecap="round" stroke-linejoin="round"/>
<path d="M395.161 239.094H307.431V309.004H395.161V239.094Z" fill="#9AAE7A" stroke="#263238" stroke-linecap="round" stroke-linejoin="round"/>
<path d="M395.15 239.094H362.256V309.004H395.15V239.094Z" fill="#9AAE7A" stroke="#263238" stroke-linecap="round" stroke-linejoin="round"/>
<path d="M341.009 256.924H327.984C326.531 256.924 325.138 256.347 324.111 255.32C323.084 254.292 322.507 252.899 322.507 251.447C322.507 249.993 323.083 248.599 324.11 247.57C325.137 246.541 326.53 245.962 327.984 245.959H341.009C342.465 245.959 343.861 246.537 344.89 247.566C345.919 248.595 346.497 249.991 346.497 251.447C346.494 252.9 345.915 254.293 344.886 255.32C343.857 256.347 342.463 256.924 341.009 256.924Z" fill="#263238" stroke="#263238" stroke-linecap="round" stroke-linejoin="round"/>
<path d="M426.111 168.921H338.381V238.831H426.111V168.921Z" fill="#9AAE7A" stroke="#263238" stroke-linecap="round" stroke-linejoin="round"/>
<path d="M426.1 168.921H393.206V238.831H426.1V168.921Z" fill="#9AAE7A" stroke="#263238" stroke-linecap="round" stroke-linejoin="round"/>
<path d="M371.959 186.74H358.944C358.224 186.742 357.511 186.601 356.845 186.326C356.179 186.052 355.574 185.648 355.064 185.14C354.555 184.631 354.15 184.027 353.874 183.361C353.599 182.696 353.457 181.983 353.457 181.263V181.263C353.457 180.542 353.598 179.829 353.874 179.163C354.15 178.497 354.554 177.892 355.064 177.383C355.573 176.873 356.178 176.469 356.844 176.193C357.51 175.917 358.224 175.775 358.944 175.775H371.959C373.415 175.775 374.81 176.353 375.839 177.383C376.869 178.412 377.447 179.808 377.447 181.263C377.444 182.717 376.865 184.11 375.836 185.137C374.807 186.163 373.413 186.74 371.959 186.74Z" fill="#263238" stroke="#263238" stroke-linecap="round" stroke-linejoin="round"/>
<path d="M456.44 239.094H368.721V309.004H456.44V239.094Z" fill="#9AAE7A" stroke="#263238" stroke-linecap="round" stroke-linejoin="round"/>
<path d="M456.44 239.094H423.545V309.004H456.44V239.094Z" fill="#9AAE7A" stroke="#263238" stroke-linecap="round" stroke-linejoin="round"/>
<path d="M402.299 256.924H389.274C387.821 256.924 386.428 256.347 385.401 255.32C384.374 254.292 383.797 252.899 383.797 251.447V251.447C383.797 249.993 384.373 248.599 385.4 247.57C386.427 246.541 387.82 245.962 389.274 245.959H402.299C403.755 245.959 405.15 246.537 406.18 247.566C407.209 248.595 407.787 249.991 407.787 251.447C407.784 252.9 407.205 254.293 406.176 255.32C405.147 256.347 403.753 256.924 402.299 256.924V256.924Z" fill="#263238" stroke="#263238" stroke-linecap="round" stroke-linejoin="round"/>
<path d="M495.958 308.531H408.228V378.442H495.958V308.531Z" fill="#9AAE7A" stroke="#263238" stroke-linecap="round" stroke-linejoin="round"/>
<path d="M495.958 308.531H463.063V378.442H495.958V308.531Z" fill="#9AAE7A" stroke="#263238" stroke-linecap="round" stroke-linejoin="round"/>
<path d="M441.817 315.386H428.802C425.771 315.386 423.314 317.84 423.314 320.868C423.314 323.896 425.771 326.351 428.802 326.351H441.817C444.848 326.351 447.305 323.896 447.305 320.868C447.305 317.84 444.848 315.386 441.817 315.386Z" fill="#263238" stroke="#263238" stroke-linecap="round" stroke-linejoin="round"/>
<path d="M441.218 168.616H487.632C491.867 168.616 495.929 170.298 498.924 173.293C501.918 176.288 503.601 180.35 503.601 184.585V358.898H425.249V184.564C425.254 180.332 426.939 176.276 429.933 173.286C432.927 170.296 436.986 168.616 441.218 168.616Z" stroke="#263238" stroke-width="4" stroke-linecap="round" stroke-linejoin="round"/>
<path d="M425.249 207.776H503.601" stroke="#263238" stroke-width="4" stroke-linecap="round" stroke-linejoin="round"/>
<path d="M462.779 208.102V358.225" stroke="#263238" stroke-width="4" stroke-linecap="round" stroke-linejoin="round"/>
<path d="M280.508 414.737C281.736 409.957 278.857 405.087 274.077 403.859C269.297 402.631 264.427 405.51 263.198 410.29C261.97 415.07 264.849 419.94 269.629 421.168C274.409 422.397 279.28 419.517 280.508 414.737Z" fill="#263238" stroke="#263238" stroke-linecap="round" stroke-linejoin="round"/>
<path d="M257.148 398.406L269.228 413.933C269.732 414.579 270.455 415.018 271.261 415.167C272.067 415.316 272.899 415.165 273.601 414.742V414.742C274.044 414.477 274.419 414.114 274.698 413.68C274.977 413.246 275.152 412.753 275.209 412.24L276.608 399.625L257.148 398.406Z" fill="white" stroke="#263238" stroke-linecap="round" stroke-linejoin="round"/>
<path d="M378.865 414.537C380.003 409.735 377.032 404.919 372.23 403.782C367.428 402.644 362.613 405.614 361.475 410.416C360.337 415.219 363.307 420.034 368.11 421.172C372.912 422.31 377.727 419.339 378.865 414.537Z" fill="#263238" stroke="#263238" stroke-linecap="round" stroke-linejoin="round"/>
<path d="M355.475 398.406L367.544 413.933C368.048 414.579 368.771 415.018 369.577 415.167C370.383 415.316 371.215 415.165 371.917 414.742V414.742C372.36 414.477 372.735 414.114 373.014 413.68C373.293 413.246 373.468 412.753 373.526 412.24L374.934 399.625L355.475 398.406Z" fill="white" stroke="#263238" stroke-linecap="round" stroke-linejoin="round"/>
<path d="M454.161 414.547C455.299 409.745 452.328 404.929 447.526 403.792C442.724 402.654 437.908 405.624 436.77 410.426C435.633 415.229 438.603 420.044 443.405 421.182C448.208 422.32 453.023 419.349 454.161 414.547Z" fill="#263238" stroke="#263238" stroke-linecap="round" stroke-linejoin="round"/>
<path d="M430.778 398.406L442.858 413.933C443.362 414.579 444.085 415.018 444.891 415.167C445.696 415.316 446.529 415.165 447.231 414.742V414.742C447.673 414.477 448.049 414.114 448.328 413.68C448.607 413.246 448.782 412.753 448.839 412.24L450.238 399.625L430.778 398.406Z" fill="white" stroke="#263238" stroke-linecap="round" stroke-linejoin="round"/>
<path d="M503.548 359.109H251.061V399.226H503.548V359.109Z" fill="white" stroke="#263238" stroke-linecap="round" stroke-linejoin="round"/>
<path d="M503.548 359.109H425.122V399.226H503.548V359.109Z" fill="#C4C4C4" stroke="#263238" stroke-linecap="round" stroke-linejoin="round"/>
<path d="M281.612 195.276C279.13 197.17 276.971 199.453 275.22 202.036C273.117 205.59 254.247 231.178 254.247 231.178L261.007 241.123L281.612 231.178C281.811 223.925 282.404 216.689 283.388 209.5" fill="white"/>
<path d="M281.612 195.276C279.13 197.17 276.971 199.453 275.22 202.036C273.117 205.59 254.247 231.178 254.247 231.178L261.007 241.123L281.612 231.178C281.811 223.925 282.404 216.689 283.388 209.5" stroke="#263238" stroke-linecap="round" stroke-linejoin="round"/>
<path d="M267.136 244.834C267.136 244.834 272.823 243.057 274.6 237.727C276.376 232.397 274.242 228.129 268.197 224.218C262.152 220.308 257.537 222.442 254.341 225.648C251.145 228.855 251.188 235.951 253.984 239.861C256.78 243.772 263.929 244.477 267.136 244.834Z" fill="white" stroke="#263238" stroke-linecap="round" stroke-linejoin="round"/>
<path d="M265.001 252.656C265.001 252.656 271.751 240.219 271.751 234.889C271.751 229.559 262.867 225.995 257.537 227.772C252.207 229.548 253.626 238.442 254.383 241.996C255.14 245.549 256.16 251.941 255.803 255.852C255.445 259.762 253.7 261.182 256.507 262.254C259.314 263.326 263.225 257.628 265.001 252.656Z" fill="white" stroke="#263238" stroke-linecap="round" stroke-linejoin="round"/>
<path d="M296.54 414.616C296.54 414.616 283.746 421.723 280.55 424.214C277.354 426.706 275.924 428.472 279.499 429.544C283.073 430.617 288.025 431.321 292.293 429.902C296.561 428.483 298.685 427.053 301.176 425.991C303.668 424.929 306.506 425.276 306.506 420.304V415.331L296.54 414.616Z" fill="white" stroke="#263238" stroke-linecap="round" stroke-linejoin="round"/>
<path d="M306.327 422.028C305.171 422.312 303.752 422.68 302.227 423.079C298.317 424.13 295.478 428.062 289.791 428.409C285.848 428.661 280.729 427.358 277.943 426.559C276.976 427.82 277.207 428.798 279.488 429.481C283.041 430.533 288.014 431.258 292.282 429.839C296.55 428.42 298.674 426.99 301.166 425.928C303.3 425.013 305.676 425.129 306.327 422.028Z" fill="white" stroke="#263238" stroke-linecap="round" stroke-linejoin="round"/>
<path d="M310.049 417.055C310.049 417.055 299.736 427 295.121 429.492C290.506 431.984 306.853 432.646 311.826 432.33C316.798 432.015 317.87 429.492 320.352 427.715C321.374 426.996 322.201 426.035 322.761 424.918C323.32 423.801 323.594 422.562 323.558 421.313C323.564 420.715 323.439 420.123 323.192 419.578C322.945 419.033 322.582 418.549 322.128 418.159L310.049 417.055Z" fill="white" stroke="#263238" stroke-linecap="round" stroke-linejoin="round"/>
<path d="M311.826 432.33C316.798 431.973 317.87 429.492 320.351 427.715C321.373 426.996 322.201 426.035 322.761 424.918C323.32 423.801 323.594 422.562 323.558 421.313V421.313C321.182 424.32 316.546 429.24 311.121 429.849C304.729 430.554 295.131 429.492 295.131 429.492C290.506 431.973 306.853 432.688 311.826 432.33Z" fill="white" stroke="#263238" stroke-linecap="round" stroke-linejoin="round"/>
<path d="M281.969 264.935C281.969 264.935 276.997 309.719 278.815 332.816C280.634 355.913 296.54 414.616 296.54 414.616L306.496 415.331C306.496 415.331 307.2 380.145 307.547 360.244C307.894 340.343 311.1 271.747 311.1 271.747L281.969 264.935Z" fill="#263238" stroke="#263238" stroke-linecap="round" stroke-linejoin="round"/>
<path d="M329.95 272.399C333.219 277.471 334.835 283.432 334.575 289.461C334.218 299.764 330.665 313.641 330.665 320.379C330.665 327.118 328.562 343.833 328.562 349.521C328.562 355.208 326.46 369.075 326.46 382.226C326.46 395.378 322.191 418.117 322.191 418.117L310.112 417.066C310.112 417.066 305.844 381.164 304.425 368.013C303.005 354.861 301.933 333.184 301.933 331.407C301.933 329.631 302.648 270.99 302.648 270.99L329.95 272.399Z" fill="#263238" stroke="#263238" stroke-linecap="round" stroke-linejoin="round"/>
<path d="M295.457 152.184C295.457 152.184 288.413 153.12 287.047 143.774C285.68 134.428 298.779 125.902 310.511 123.127C322.244 120.352 331.117 120.257 337.214 134.355C343.312 148.452 334.397 164.842 334.397 164.842C334.397 164.842 344.72 181.736 345.666 193.941C346.613 206.147 340.967 212.234 340.967 212.234L329.235 207.072C329.235 207.072 336.751 181.736 330.181 166.251C330.181 166.251 318.449 167.659 316.567 163.433C314.685 159.207 308.588 146.539 307.179 146.076C305.77 145.614 295.457 152.184 295.457 152.184Z" fill="#263238" stroke="#263238" stroke-linecap="round" stroke-linejoin="round"/>
<path d="M311.542 137.183C311.542 137.183 317.955 127.563 325.86 126.071" stroke="#858585" stroke-linecap="round" stroke-linejoin="round"/>
<path d="M314.527 138.686C318.742 143.375 323.24 147.802 327.994 151.943L334.407 157.283" stroke="#858585" stroke-linecap="round" stroke-linejoin="round"/>
<path d="M319.658 133.125C319.658 133.125 333.125 138.896 335.479 151.943" stroke="#858585" stroke-linecap="round" stroke-linejoin="round"/>
<path d="M312.604 134.617C312.604 134.617 288.424 140.61 289.086 144.878" stroke="#858585" stroke-linecap="round" stroke-linejoin="round"/>
<path d="M287.804 141.672C287.804 141.672 301.912 124.788 319.658 127.353" stroke="#858585" stroke-linecap="round" stroke-linejoin="round"/>
<path d="M304.362 186.393C304.362 186.393 281.612 193.142 281.612 195.277C281.612 197.411 281.612 264.588 282.327 266.711C283.041 268.835 315.736 274.533 319.647 274.175C323.558 273.818 327.816 273.471 329.95 272.399C332.084 271.326 343.459 209.5 345.236 205.59C347.012 201.679 344.878 197.053 341.682 194.919C338.486 192.785 312.887 187.108 312.887 187.108C310.084 186.534 307.222 186.294 304.362 186.393V186.393Z" fill="white" stroke="#263238" stroke-linecap="round" stroke-linejoin="round"/>
<path d="M291.925 190.693C291.925 190.693 283.746 232.629 281.969 250.038C280.192 267.447 275.577 333.205 275.577 333.205C275.577 333.205 285.165 338.892 300.093 338.892H326.754V258.574L334.575 258.217L335.28 255.063L326.039 251.152C326.039 251.152 327.09 219.162 327.816 206.725C328.541 194.288 328.867 191.092 328.867 191.092L325.314 190.041L319.342 226.552L291.567 220.129L296.214 189.242L291.925 190.693Z" fill="#E47A40" stroke="#263238" stroke-linecap="round" stroke-linejoin="round"/>
<path d="M306.496 181.421C306.496 181.421 300.451 182.472 297.959 186.393C295.468 190.315 289.433 206.294 294.059 207.009C298.685 207.724 304.361 199.902 307.2 199.902C310.038 199.902 312.54 211.624 319.29 210.92C326.039 210.215 326.754 195.634 325.335 187.791C323.915 179.949 308.977 180.001 306.496 181.421Z" fill="white" stroke="#263238" stroke-linecap="round" stroke-linejoin="round"/>
<path d="M302.227 171.822C302.227 171.822 303.647 187.812 303.647 194.572C303.647 201.332 302.227 204.16 306.496 204.16C310.764 204.16 320.709 191.019 320.709 184.974V170.046C320.709 170.046 307.915 172.537 302.227 171.822Z" fill="white" stroke="#263238" stroke-linecap="round" stroke-linejoin="round"/>
<path d="M339.905 193.847C339.905 193.847 347.012 196.685 349.146 200.249C351.28 203.813 363.948 248.934 363.948 248.934L346.182 259.237L334.922 225.837C334.531 221.226 334.415 216.596 334.575 211.971" fill="white"/>
<path d="M339.905 193.847C339.905 193.847 347.012 196.685 349.146 200.249C351.28 203.813 363.948 248.934 363.948 248.934L346.182 259.237L334.922 225.837C334.531 221.226 334.415 216.596 334.575 211.971" stroke="#263238" stroke-linecap="round" stroke-linejoin="round"/>
<path d="M340.841 252.855C340.841 252.855 340.252 245.034 342.323 241.481C344.394 237.927 356.852 231.882 361.888 232.955C366.923 234.027 367.228 245.391 364.264 248.587C361.299 251.783 344.1 257.828 340.841 252.855Z" fill="white" stroke="#263238" stroke-linecap="round" stroke-linejoin="round"/>
<path d="M263.572 265.786L313.728 279.127L301.302 298.649L239.308 277.329L263.572 265.786Z" fill="white" stroke="#263238" stroke-linecap="round" stroke-linejoin="round"/>
<path d="M238.614 265.786L263.572 252.698V265.786L238.614 279.484V265.786Z" fill="#696969" stroke="#263238" stroke-linecap="round" stroke-linejoin="round"/>
<path d="M263.572 265.786L317.744 280.704L318.953 267.31L263.572 252.698V265.786Z" fill="#8C8C8C" stroke="#263238" stroke-linecap="round" stroke-linejoin="round"/>
<path d="M272.455 264.977C272.455 266.355 272.046 267.703 271.28 268.849C270.514 269.995 269.426 270.889 268.152 271.416C266.879 271.944 265.477 272.082 264.125 271.813C262.773 271.544 261.531 270.88 260.556 269.905C259.582 268.93 258.918 267.688 258.649 266.336C258.38 264.984 258.518 263.583 259.046 262.309C259.573 261.036 260.466 259.947 261.613 259.181C262.759 258.415 264.106 258.007 265.485 258.007C267.334 258.007 269.106 258.741 270.414 260.048C271.721 261.355 272.455 263.128 272.455 264.977Z" fill="white" stroke="#263238" stroke-linecap="round" stroke-linejoin="round"/>
<path d="M278.058 276.982C281.908 276.982 285.028 273.862 285.028 270.012C285.028 266.163 281.908 263.042 278.058 263.042C274.209 263.042 271.088 266.163 271.088 270.012C271.088 273.862 274.209 276.982 278.058 276.982Z" fill="white" stroke="#263238" stroke-linecap="round" stroke-linejoin="round"/>
<path d="M290.169 278.349C294.019 278.349 297.139 275.228 297.139 271.379C297.139 267.53 294.019 264.409 290.169 264.409C286.32 264.409 283.199 267.53 283.199 271.379C283.199 275.228 286.32 278.349 290.169 278.349Z" fill="white" stroke="#263238" stroke-linecap="round" stroke-linejoin="round"/>
<path d="M302.511 282.691C306.361 282.691 309.481 279.57 309.481 275.721C309.481 271.871 306.361 268.751 302.511 268.751C298.662 268.751 295.541 271.871 295.541 275.721C295.541 279.57 298.662 282.691 302.511 282.691Z" fill="white" stroke="#263238" stroke-linecap="round" stroke-linejoin="round"/>
<path d="M299.652 280.052C299.652 281.431 299.243 282.778 298.477 283.924C297.711 285.071 296.623 285.964 295.349 286.492C294.075 287.019 292.674 287.157 291.322 286.888C289.97 286.619 288.728 285.955 287.753 284.981C286.778 284.006 286.115 282.764 285.846 281.412C285.577 280.06 285.715 278.658 286.242 277.385C286.77 276.111 287.663 275.023 288.809 274.257C289.956 273.491 291.303 273.082 292.682 273.082C294.53 273.082 296.303 273.816 297.61 275.124C298.917 276.431 299.652 278.203 299.652 280.052V280.052Z" fill="white" stroke="#263238" stroke-linecap="round" stroke-linejoin="round"/>
<path d="M261.522 270.696C261.522 272.074 261.113 273.422 260.347 274.568C259.581 275.714 258.493 276.607 257.219 277.135C255.945 277.663 254.544 277.801 253.192 277.532C251.84 277.263 250.598 276.599 249.623 275.624C248.648 274.649 247.985 273.407 247.716 272.055C247.447 270.703 247.585 269.302 248.112 268.028C248.64 266.755 249.533 265.666 250.679 264.9C251.826 264.134 253.173 263.726 254.552 263.726C256.4 263.726 258.173 264.46 259.48 265.767C260.787 267.074 261.522 268.847 261.522 270.696V270.696Z" fill="white" stroke="#263238" stroke-linecap="round" stroke-linejoin="round"/>
<path d="M266.168 282.007C270.018 282.007 273.138 278.887 273.138 275.037C273.138 271.188 270.018 268.067 266.168 268.067C262.319 268.067 259.198 271.188 259.198 275.037C259.198 278.887 262.319 282.007 266.168 282.007Z" fill="white" stroke="#263238" stroke-linecap="round" stroke-linejoin="round"/>
<path d="M285.701 278.233C285.701 279.612 285.292 280.959 284.527 282.106C283.761 283.252 282.672 284.145 281.399 284.673C280.125 285.2 278.724 285.338 277.371 285.069C276.019 284.8 274.777 284.137 273.803 283.162C272.828 282.187 272.164 280.945 271.895 279.593C271.626 278.241 271.764 276.84 272.292 275.566C272.819 274.292 273.713 273.204 274.859 272.438C276.005 271.672 277.353 271.263 278.731 271.263C280.58 271.263 282.353 271.998 283.66 273.305C284.967 274.612 285.701 276.385 285.701 278.233Z" fill="white" stroke="#263238" stroke-linecap="round" stroke-linejoin="round"/>
<path d="M318.953 267.31L301.302 283.132V298.649L317.744 280.704L318.953 267.31Z" fill="#696969" stroke="#263238" stroke-linecap="round" stroke-linejoin="round"/>
<path d="M301.302 283.132L238.614 265.786V279.484L301.302 298.649V283.132Z" fill="#8C8C8C" stroke="#263238" stroke-linecap="round" stroke-linejoin="round"/>
<path d="M342.281 245.875L328.888 257.439C328.888 257.439 321.813 256.156 319.563 257.765C316.131 260.648 313.006 263.879 310.238 267.405C310.053 267.71 309.981 268.07 310.037 268.422C310.092 268.774 310.271 269.095 310.542 269.328C310.812 269.56 311.156 269.689 311.513 269.691C311.869 269.693 312.215 269.569 312.488 269.339C313.77 268.372 319.237 265.134 319.237 265.134C319.237 265.134 318.28 275.742 317.313 277.676C316.346 279.611 311.983 284.257 313.571 284.257C315.158 284.257 319.878 283.206 321.171 282.155C322.465 281.103 323.737 278.296 323.737 278.296C323.737 278.296 329.845 275.405 329.845 274.438C329.845 273.471 332.094 269.297 332.094 269.297L334.996 264.157C334.996 264.157 351.606 260.298 356.106 257.081C360.605 253.865 368.637 248.398 366.072 241.975C363.507 235.551 357.388 233.648 342.281 245.875Z" fill="white" stroke="#263238" stroke-linecap="round" stroke-linejoin="round"/>
<path d="M263.488 252.719C263.563 252.289 263.545 251.849 263.436 251.427C263.326 251.005 263.127 250.612 262.851 250.273C262.576 249.935 262.231 249.66 261.841 249.467C261.45 249.274 261.022 249.168 260.586 249.155C259.935 249.05 259.268 249.101 258.64 249.302C258.012 249.503 257.439 249.848 256.97 250.311C255.193 252.414 251.64 260.256 253.416 262.39C255.193 264.525 258.746 255.284 258.746 255.284C258.746 255.284 262.867 255.526 263.488 252.719Z" fill="white" stroke="#263238" stroke-linecap="round" stroke-linejoin="round"/>
<path d="M309.996 139.043L293.575 148.431C293.575 148.431 292.167 161.572 293.575 170.95C294.984 180.327 302.963 184.091 310.469 184.091C317.976 184.091 324.073 177.52 324.546 175.176C325.019 172.832 325.482 170.487 325.482 170.487C325.482 170.487 332.525 169.541 332.988 162.497C333.451 155.454 329.235 154.529 327.826 155.937L325.019 158.755C325.019 158.755 314.696 151.249 309.996 139.043Z" fill="white" stroke="#263238" stroke-linecap="round" stroke-linejoin="round"/>
<path d="M302.448 158.103C302.448 159.438 301.828 160.521 301.071 160.521C300.314 160.521 299.694 159.47 299.694 158.103C299.694 156.736 300.304 155.696 301.071 155.696C301.838 155.696 302.448 156.789 302.448 158.103Z" fill="#263238"/>
<path d="M313.371 159.585C313.371 160.91 312.751 161.993 311.994 161.993C311.237 161.993 310.617 160.942 310.617 159.585C310.617 158.229 311.226 157.167 311.994 157.167C312.761 157.167 313.371 158.25 313.371 159.585Z" fill="#263238"/>
<path d="M304.624 158.555C304.624 158.555 303.573 162.497 303.047 164.337C302.522 166.177 303.047 168.542 306.201 167.754" fill="white"/>
<path d="M304.624 158.555C304.624 158.555 303.573 162.497 303.047 164.337C302.522 166.177 303.047 168.542 306.201 167.754" stroke="#263238" stroke-linecap="round" stroke-linejoin="round"/>
<path d="M305.549 172.033C305.549 172.033 309.607 173.084 313.466 168.395Z" fill="white"/>
<path d="M305.549 172.033C305.549 172.033 309.607 173.084 313.466 168.395" stroke="#263238" stroke-linecap="round" stroke-linejoin="round"/>
<path d="M297.507 153.036C298.194 152.346 299.112 151.937 300.085 151.888C301.057 151.839 302.012 152.155 302.764 152.773" fill="white"/>
<path d="M297.507 153.036C298.194 152.346 299.112 151.937 300.085 151.888C301.057 151.839 302.012 152.155 302.764 152.773" stroke="#263238" stroke-linecap="round" stroke-linejoin="round"/>
<path d="M308.829 153.562C308.829 153.562 313.823 151.459 315.926 154.613Z" fill="white"/>
<path d="M308.829 153.562C308.829 153.562 313.823 151.459 315.926 154.613" stroke="#263238" stroke-linecap="round" stroke-linejoin="round"/>
</g>
<defs>
<clipPath id="clip0">
<rect width="551" height="477" fill="white"/>
</clipPath>
</defs>
</svg>
