<svg width="754" height="754" viewBox="0 0 754 754" fill="none" xmlns="http://www.w3.org/2000/svg">
<path d="M146.982 280.76C146.982 280.76 107.307 375.447 157.086 472.17C206.865 568.893 313.269 621.13 398.366 665.722C483.462 710.313 573.505 690.544 617.885 620.21C662.266 549.877 605.233 498.349 607.782 397.162C610.33 295.975 626.39 269.389 573.339 183.026C520.288 96.663 385.141 75.7772 280.938 137.666C176.735 199.554 146.982 280.76 146.982 280.76Z" fill="#B6C49D"/>
<path d="M116.915 269.932C116.915 269.932 77.2398 364.619 127.019 461.342C176.798 558.066 283.202 610.303 368.299 654.894C453.395 699.486 543.438 679.716 587.818 609.383C632.199 539.05 575.166 487.521 577.715 386.335C580.263 285.148 596.324 258.562 543.272 172.199C490.221 85.8354 355.074 64.9496 250.871 126.838C146.668 188.726 116.915 269.932 116.915 269.932Z" fill="#738F48"/>
<path d="M581.937 505.662C581.937 505.662 580.927 540.874 585.3 556.934C589.673 572.995 599.038 608.568 600.712 615.943C602.386 623.317 600.048 635.049 600.048 635.049C600.048 635.049 583.611 642.438 581.605 643.102C579.6 643.765 581.937 645.786 585.632 646.449C589.326 647.113 615.792 648.47 617.149 645.107C618.506 641.744 618.144 630.027 619.486 623.995C620.829 617.963 629.892 596.851 625.518 581.771C621.145 566.691 619.486 553.27 620.813 547.238C622.14 541.206 626.514 525.779 627.856 524.105C629.198 522.431 636.24 517.742 638.925 513.037C640.641 509.702 641.667 506.055 641.941 502.315C641.941 502.315 602.733 510.021 581.937 505.662Z" fill="white" stroke="#263238" stroke-width="1.15613" stroke-linecap="round" stroke-linejoin="round"/>
<path d="M638.94 513.037C640.656 509.702 641.682 506.055 641.956 502.315C641.956 502.315 602.748 510.021 581.937 505.662C581.937 505.662 580.927 540.874 585.3 556.935C589.673 572.995 599.038 608.568 600.712 615.943C601.057 617.585 601.249 619.256 601.285 620.934C607.233 623.156 613.681 623.678 619.909 622.442C622.08 614.902 629.575 595.75 625.533 581.726C621.175 566.646 619.501 553.225 620.829 547.193C622.156 541.161 626.529 525.734 627.871 524.06C629.213 522.386 636.255 517.742 638.94 513.037Z" fill="#263238" stroke="#263238" stroke-width="1.15613" stroke-linecap="round" stroke-linejoin="round"/>
<path d="M605.417 639.784L600.048 635.079C600.048 635.079 583.611 642.468 581.605 643.132C579.6 643.795 581.937 645.816 585.632 646.48C589.326 647.143 615.792 648.5 617.149 645.137C617.819 642.55 618.178 639.893 618.22 637.22L605.417 639.784Z" fill="#E47A40" stroke="#263238" stroke-width="1.15613" stroke-linecap="round" stroke-linejoin="round"/>
<path d="M589.311 375.236C591.884 379.45 592.838 384.455 591.996 389.32C590.653 397.705 580.927 411.111 573.553 417.821C566.179 424.532 566.51 435.917 570.537 441.618C574.563 447.318 576.569 447.318 576.569 447.318L563.841 506.341C563.841 506.341 585.964 510.699 602.054 510.699C618.144 510.699 622.849 510.352 630.887 508.347C638.924 506.341 652.964 502.978 652.964 502.978C652.964 502.978 640.9 455.371 640.9 442.658C640.9 429.946 642.242 416.841 642.242 416.841C642.242 416.841 644.595 404.099 633.526 385.324C622.457 366.549 604.708 364.845 597.696 366.519C595.634 367.065 593.761 368.166 592.283 369.703C590.804 371.24 589.776 373.154 589.311 375.236Z" fill="#E47A40" stroke="#263238" stroke-width="1.15613" stroke-linecap="round" stroke-linejoin="round"/>
<path d="M576.569 447.318C576.569 447.318 585.3 451.344 594.016 447.665" stroke="#263238" stroke-width="1.15613" stroke-linecap="round" stroke-linejoin="round"/>
<path d="M585.964 450.334V464.766" stroke="#263238" stroke-width="1.15613" stroke-linecap="round" stroke-linejoin="round"/>
<path d="M582.269 449.339L579.6 485.546" stroke="#263238" stroke-width="1.15613" stroke-linecap="round" stroke-linejoin="round"/>
<path d="M633.571 385.294C622.517 366.519 604.738 364.845 597.696 366.519C595.634 367.065 593.761 368.166 592.283 369.703C590.804 371.24 589.776 373.154 589.311 375.236C591.884 379.45 592.838 384.455 591.996 389.32C590.865 396.378 583.792 406.994 577.172 414.187C579.585 414.715 583.852 414.187 589.658 407.763C599.038 397.358 606.412 391.326 615.128 388.642C621.462 386.696 629.56 389.878 634.732 387.269C634.31 386.606 633.963 386.048 633.571 385.294Z" fill="white" stroke="#263238" stroke-width="1.15613" stroke-linecap="round" stroke-linejoin="round"/>
<path d="M576.916 333.268C576.916 333.268 574.563 339.964 574.895 343.99C575.227 348.016 576.569 350.022 574.563 353.716C572.557 357.411 568.863 359.748 569.873 361.422C570.884 363.096 575.905 364.438 575.905 364.438C575.905 364.438 577.911 376.834 580.263 378.176C582.616 379.518 597.364 372.808 600.38 371.812C603.396 370.817 607.422 362.086 605.07 348.665C602.717 335.243 586.612 327.628 576.916 333.268Z" fill="white" stroke="#263238" stroke-width="1.15613" stroke-linecap="round" stroke-linejoin="round"/>
<path d="M581.605 352.872C581.605 354.078 581.078 355.059 580.429 355.059C579.781 355.059 579.253 354.078 579.253 352.872C579.253 351.666 579.781 350.7 580.429 350.7C581.078 350.7 581.605 351.741 581.605 352.872Z" fill="#263238"/>
<path d="M578.258 347.413C578.258 347.413 582.269 344.729 584.29 349.087" stroke="#263238" stroke-width="1.15613" stroke-linecap="round" stroke-linejoin="round"/>
<path d="M571.351 329.362C570.911 329.895 570.684 330.571 570.711 331.261C570.739 331.951 571.021 332.607 571.502 333.102C574.133 335.874 577.187 338.21 580.55 340.024C586.582 343.04 594.635 348.077 594.635 353.777C594.635 359.477 591.287 375.899 594.635 381.599C597.982 387.3 607.045 392.668 612.414 393.347C617.782 394.025 625.488 399.71 627.494 409.105C629.499 418.5 632.576 430.564 643.916 428.272C655.256 425.98 657.654 409.829 652.964 402.455C648.274 395.081 643.916 394.749 647.595 386.696C651.275 378.644 648.938 367.922 640.885 361.211C632.832 354.501 626.468 358.195 625.805 350.142C625.141 342.09 622.336 330.885 616.41 322.998C609.669 313.86 585.677 311.673 571.351 329.362Z" fill="#263238" stroke="#263238" stroke-width="1.15613" stroke-linecap="round" stroke-linejoin="round"/>
<path d="M602.386 492.588C602.386 492.588 600.712 511.363 599.37 513.368C598.028 515.374 592.327 520.411 591.332 522.763C590.337 525.116 592.644 533.832 592.644 533.832C592.644 533.832 594.65 535.838 596.324 535.174C597.997 534.511 597.334 533.153 597.334 533.153C597.334 533.153 596.324 531.148 597.334 530.469C598.344 529.791 602.356 528.795 603.698 525.448C604.595 523.056 605.272 520.588 605.718 518.073L614.103 495.604L602.386 492.588Z" fill="white" stroke="#263238" stroke-width="1.15613" stroke-linecap="round" stroke-linejoin="round"/>
<path d="M596.354 416.208C596.354 416.208 595.69 433.294 596.685 440.336C597.681 447.378 598.374 468.174 596.354 476.211C594.333 484.249 595.69 495.001 595.69 495.001C595.69 495.001 606.412 500.023 611.781 499.359C617.149 498.696 620.829 498.017 620.829 498.017C620.829 498.017 626.86 471.853 627.871 460.121C628.881 448.389 626.529 411.503 626.529 411.503" fill="#E47A40"/>
<path d="M596.354 416.208C596.354 416.208 595.69 433.294 596.685 440.336C597.681 447.378 598.374 468.174 596.354 476.211C594.333 484.249 595.69 495.001 595.69 495.001C595.69 495.001 606.412 500.023 611.781 499.359C617.149 498.696 620.829 498.017 620.829 498.017C620.829 498.017 626.86 471.853 627.871 460.121C628.881 448.389 626.529 411.503 626.529 411.503" stroke="#263238" stroke-width="1.15613" stroke-linecap="round" stroke-linejoin="round"/>
<path d="M598.014 370.863C598.014 370.863 587.021 381.495 582.934 381.857C578.847 382.218 576.691 379.67 574.489 377.091C572.287 374.513 569 365.027 569 362.795C569.256 361.13 569.765 359.513 570.508 358C582.421 361.016 599.416 359.131 599.416 359.131L586.945 363.172L589.147 372.703L598.014 370.863Z" fill="#E47A40" stroke="#263238" stroke-width="1.15613" stroke-linecap="round" stroke-linejoin="round"/>
<path d="M461.011 402.757H421.411V446.383H461.011V402.757Z" fill="#9AAE7A" stroke="#263238" stroke-width="1.15613" stroke-linecap="round" stroke-linejoin="round"/>
<path d="M444.811 439.933C452.569 438.109 457.38 430.341 455.556 422.582C453.732 414.823 445.964 410.012 438.205 411.836C430.446 413.66 425.635 421.429 427.459 429.188C429.283 436.947 437.052 441.758 444.811 439.933Z" fill="white"/>
<path d="M355.421 361.332C353.065 365.087 350.983 369.008 349.193 373.064C347.685 377.09 346.252 383.695 346.252 383.695L332.68 376.729L341.472 353.626L355.421 361.332Z" fill="white" stroke="#263238" stroke-width="1.15613" stroke-linecap="round" stroke-linejoin="round"/>
<path d="M368.254 326.135C368.254 326.135 373.758 327.975 375.959 321.37C378.161 314.765 369.716 308.537 357.984 305.234C346.252 301.932 327.236 313.302 323.526 322.109C319.817 330.916 323.164 340.431 318.399 347.036C313.634 353.641 296.397 355.104 294.558 372.672C292.718 390.24 303.726 396.8 301.163 403.088C298.599 409.377 287.968 412.996 289.792 426.93C291.617 440.864 312.156 448.193 321.325 442.688C330.493 437.184 333.796 425.452 330.855 411.156C327.915 396.86 326.467 382.203 334.158 376.698C341.849 371.194 350.655 360.563 351.394 355.436C352.133 350.308 350.293 349.208 354.697 347.73C359.1 346.252 367.153 336.405 368.254 326.135Z" fill="#263238" stroke="#263238" stroke-width="1.15613" stroke-linecap="round" stroke-linejoin="round"/>
<path d="M341.321 477.01C341.321 477.01 346.554 510.186 348.303 532.369C350.052 554.552 347.669 570.733 348.303 584.229C349.003 600.456 350.751 616.62 353.536 632.621C353.536 632.621 370.124 639.588 372.265 640.9C374.406 642.212 377.498 642.212 377.498 643.916C377.498 645.62 364.936 648.742 357.396 645.695C353.671 644.187 344.759 646.133 340.808 644.383C338.29 643.267 340.808 636.542 340.808 632.184C340.808 627.826 333.479 604.708 331.76 593.82C330.041 582.932 328.277 579.449 329.589 571.592C330.455 565.96 331.039 560.288 331.338 554.597C331.338 554.597 318.55 506.085 316.258 499.178C314.788 494.768 313.575 490.277 312.624 485.727" fill="#263238"/>
<path d="M341.321 477.01C341.321 477.01 346.554 510.186 348.303 532.369C350.052 554.552 347.669 570.733 348.303 584.229C349.003 600.456 350.751 616.62 353.536 632.621C353.536 632.621 370.124 639.588 372.265 640.9C374.406 642.212 377.498 642.212 377.498 643.916C377.498 645.62 364.936 648.742 357.396 645.695C353.671 644.187 344.759 646.133 340.808 644.383C338.29 643.267 340.808 636.542 340.808 632.184C340.808 627.826 333.479 604.708 331.76 593.82C330.041 582.932 328.277 579.449 329.589 571.592C330.455 565.96 331.039 560.288 331.338 554.597C331.338 554.597 318.55 506.085 316.258 499.178C314.788 494.768 313.575 490.277 312.624 485.727" stroke="#263238" stroke-width="1.15613" stroke-linecap="round" stroke-linejoin="round"/>
<path d="M372.265 640.9C370.093 639.588 353.536 632.621 353.536 632.621C353.536 632.621 351.907 624.131 350.399 610.634C346.118 613.01 341.159 613.866 336.329 613.062C338.637 621.673 340.853 629.771 340.853 632.184C340.853 636.542 338.335 643.268 340.853 644.383C344.789 646.133 353.702 644.157 357.441 645.695C364.846 648.711 377.483 645.695 377.483 643.946C377.483 642.197 374.452 642.212 372.265 640.9Z" fill="white" stroke="#263238" stroke-width="1.15613" stroke-linecap="round" stroke-linejoin="round"/>
<path d="M340.567 635.607C339.979 639.437 338.968 643.539 340.883 644.384C344.819 646.133 353.732 644.157 357.471 645.695C364.876 648.711 377.513 645.695 377.513 643.946C377.513 642.197 374.497 642.212 372.28 640.93C370.063 639.648 353.551 632.651 353.551 632.651L351.786 637.884L340.567 635.607Z" fill="#E47A40" stroke="#263238" stroke-width="1.15613" stroke-linecap="round" stroke-linejoin="round"/>
<path d="M331.232 370.123C333.679 369.677 336.194 369.773 338.6 370.406C341.005 371.04 343.241 372.194 345.151 373.788C352.118 379.292 353.596 388.461 359.462 397.629C365.328 406.798 366.052 414.851 363.85 419.993C361.649 425.135 354.697 441.618 351.017 451.887C347.338 462.157 345.89 478.654 343.688 489.587C341.487 500.52 323.164 501.319 316.197 499.118C309.23 496.916 301.962 487.747 301.223 475.653C300.484 463.559 306.727 458.1 308.205 455.16C309.683 452.219 324.989 428.724 321.325 416.992C317.66 405.26 319.123 391.356 321.702 384.374C324.28 377.392 329.031 371.224 331.232 370.123Z" fill="#263238" stroke="#263238" stroke-width="1.15613" stroke-linecap="round" stroke-linejoin="round"/>
<path d="M345.151 373.788C343.242 372.194 341.005 371.04 338.6 370.406C336.194 369.773 333.679 369.677 331.232 370.123C329.031 371.224 324.265 377.467 321.702 384.434C319.138 391.401 317.66 405.32 321.325 417.052C324.989 428.785 309.668 452.294 308.205 455.22C308.205 455.22 319.002 467.028 347.413 467.073C348.216 461.922 349.431 456.844 351.047 451.887C354.727 441.618 361.603 425.12 363.88 419.993C366.158 414.866 365.388 406.783 359.492 397.629C353.596 388.476 352.118 379.292 345.151 373.788Z" fill="#E47A40" stroke="#263238" stroke-width="1.15613" stroke-linecap="round" stroke-linejoin="round"/>
<path d="M416.283 433.188L361.287 438.692C361.287 438.692 356.883 437.591 355.782 435.39C354.878 433.565 337.506 404.144 331.655 394.252C329.716 391.094 328.898 387.375 329.332 383.696C329.83 380.031 331.76 376.367 337.445 376.367C346.674 376.367 353.626 390.255 355.903 395.458C356.702 397.283 357.577 399.062 358.497 400.826L367.545 418.153L418.515 424.381C418.515 424.381 426.945 419.254 428.408 418.515C429.871 417.776 434.636 417.43 437.214 417.007C439.793 416.585 441.603 414.444 441.603 416.645C441.603 418.847 439.778 419.209 438.677 419.571L433.173 421.411L446.745 424.728C447.134 424.808 447.475 425.038 447.696 425.369C447.916 425.699 447.997 426.103 447.921 426.493C447.897 426.69 447.834 426.88 447.736 427.053C447.638 427.226 447.507 427.378 447.35 427.5C447.193 427.622 447.013 427.711 446.821 427.764C446.63 427.816 446.429 427.83 446.232 427.805L436.476 426.87L445.689 431.318C446.021 431.495 446.274 431.79 446.4 432.144C446.525 432.499 446.514 432.887 446.368 433.233C446.222 433.528 445.984 433.767 445.69 433.914C445.396 434.061 445.063 434.108 444.739 434.048L435.013 431.936L442.266 436.099L443.895 437.607C443.352 439.959 440.969 438.617 439.673 438.014L433.746 435.254L438.828 440.864C437.201 440.836 435.622 440.31 434.304 439.356L428.755 435.39L419.526 432.675L416.283 433.188Z" fill="white" stroke="#263238" stroke-width="1.15613" stroke-linecap="round" stroke-linejoin="round"/>
<path d="M359.402 402.546L358.512 400.826C357.592 399.062 356.717 397.283 355.918 395.458C353.641 390.24 346.689 376.367 337.46 376.367C331.775 376.367 329.845 380.031 329.347 383.696C328.913 387.375 329.731 391.094 331.67 394.252L341.954 411.684L359.402 402.546Z" fill="#E47A40" stroke="#263238" stroke-width="1.15613" stroke-linecap="round" stroke-linejoin="round"/>
<path d="M308.205 483.555C308.205 483.555 308.205 503.597 309.939 521.029C311.674 538.462 312.126 558.081 310.377 561.142C308.627 564.203 299.926 579.449 298.177 586.853C296.428 594.258 295.161 625.202 292.507 632.184C289.853 639.166 289.023 643.946 290.773 644.821C292.522 645.695 313.559 646.661 318.083 647.203C322.607 647.746 328.111 646.344 328.231 644.549C328.352 642.755 320.314 639.739 313.77 635.124C307.225 630.51 307.738 624.764 307.738 620.406C307.738 616.048 317.766 589.025 326.045 569.421C334.324 549.817 341.728 500.988 341.728 493.146V480.072" fill="#263238"/>
<path d="M308.205 483.555C308.205 483.555 308.205 503.597 309.939 521.029C311.674 538.462 312.126 558.081 310.377 561.142C308.627 564.203 299.926 579.449 298.177 586.853C296.428 594.258 295.161 625.202 292.507 632.184C289.853 639.166 289.023 643.946 290.773 644.821C292.522 645.695 313.559 646.661 318.083 647.203C322.607 647.746 328.111 646.344 328.231 644.549C328.352 642.755 320.314 639.739 313.77 635.124C307.225 630.51 307.738 624.764 307.738 620.406C307.738 616.048 317.766 589.025 326.045 569.421C334.324 549.817 341.728 500.988 341.728 493.146V480.072" stroke="#263238" stroke-width="1.15613" stroke-linecap="round" stroke-linejoin="round"/>
<path d="M313.77 635.124C307.21 630.51 307.738 624.764 307.738 620.406C307.845 619.154 308.082 617.915 308.446 616.712C303.905 616.73 299.407 615.832 295.221 614.073C294.452 621.99 293.577 629.228 292.477 632.169C289.868 639.136 288.993 643.931 290.742 644.806C292.492 645.68 313.528 646.646 318.052 647.188C322.576 647.731 328.08 646.329 328.201 644.534C328.322 642.74 320.314 639.739 313.77 635.124Z" fill="white" stroke="#263238" stroke-width="1.15613" stroke-linecap="round" stroke-linejoin="round"/>
<path d="M328.231 644.549C328.367 642.755 320.314 639.739 313.77 635.124C311.444 633.612 309.659 631.399 308.673 628.806C307.868 628.787 307.082 629.055 306.456 629.56C304.706 631.309 304.284 636.542 304.284 636.542L291.979 633.677C289.792 639.829 289.159 644.006 290.773 644.821C292.386 645.635 313.558 646.661 318.082 647.203C322.606 647.746 328.111 646.344 328.231 644.549Z" fill="#E47A40" stroke="#263238" stroke-width="1.15613" stroke-linecap="round" stroke-linejoin="round"/>
<path d="M366.052 319.907C366.052 319.907 370.817 327.236 370.817 331.262C370.817 335.289 369.716 338.606 369.716 341.17C369.716 343.734 371.918 346.659 371.918 348.861C371.918 351.062 368.616 360.593 366.429 363.157C364.242 365.72 362.026 368.299 357.984 367.922C353.943 367.545 342.904 356.929 342.904 356.929C342.904 356.929 337.4 360.97 335.56 354.365C333.72 347.76 333.736 344.472 336.661 343.734C337.517 343.531 338.413 343.564 339.252 343.83C340.091 344.095 340.842 344.583 341.426 345.242C341.426 345.242 355.722 344.518 360.503 336.45C363.449 331.366 365.337 325.739 366.052 319.907V319.907Z" fill="white" stroke="#263238" stroke-width="1.15613" stroke-linecap="round" stroke-linejoin="round"/>
<path d="M342.964 356.929C342.964 356.929 353.958 367.56 358.044 367.922C362.131 368.284 364.288 365.735 366.489 363.157C368.691 360.578 371.978 351.093 371.978 348.861C371.722 347.195 371.214 345.578 370.47 344.065C358.557 347.081 341.562 345.196 341.562 345.196L354.033 349.238L351.831 358.768L342.964 356.929Z" fill="#E47A40" stroke="#263238" stroke-width="1.15613" stroke-linecap="round" stroke-linejoin="round"/>
<path d="M366.565 341.366C366.565 342.783 366.082 343.93 365.509 343.93C364.936 343.93 364.453 342.783 364.453 341.366C364.453 339.948 364.921 338.802 365.509 338.802C366.097 338.802 366.565 339.964 366.565 341.366Z" fill="#263238"/>
<path d="M362.644 336.706C362.644 336.706 364.152 331.881 367.771 335.5" stroke="#263238" stroke-width="1.15613" stroke-linecap="round" stroke-linejoin="round"/>
<path d="M505.994 629.379C505.994 629.379 490.311 638.276 486.013 640.342C481.716 642.408 478.85 644.022 486.677 646.178C494.503 648.334 516.445 646.826 520.109 646.63C523.774 646.434 525.297 647.46 525.086 643.433C524.875 639.407 525.086 629.484 525.086 629.484C525.086 629.484 508.196 630.344 505.994 629.379Z" fill="white" stroke="#263238" stroke-width="1.15613" stroke-linecap="round" stroke-linejoin="round"/>
<path d="M507.201 390.482C507.201 390.482 495.83 410.643 495.468 416.118C495.107 421.592 495.107 424.547 495.107 424.547C495.107 424.547 486.3 445.448 483.374 456.441C480.449 467.435 485.576 483.208 487.778 488.336C489.979 493.463 492.543 498.243 492.543 498.243C492.543 498.243 496.569 538.959 496.931 551.023C497.293 563.087 501.335 579.675 502.797 590.608C504.26 601.541 507.94 620.316 507.94 620.316C507.94 620.316 503.898 622.879 503.898 624.704C503.898 626.529 503.536 630.208 503.536 630.208C506.057 630.453 508.528 631.073 510.865 632.048C516.007 633.873 525.945 632.41 525.945 632.41C527.136 625.499 527.872 618.517 528.147 611.509C528.147 603.441 531.072 578.876 529.972 570.446C528.871 562.017 527.785 548.083 528.147 546.318C528.509 544.554 532.173 507.11 532.173 507.11C537.603 499.241 540.54 489.919 540.603 480.358C540.603 464.585 539.879 461.282 539.879 461.282C539.879 461.282 543.905 413.991 542.081 397.494C540.256 380.996 531.404 377 531.404 377L507.201 390.482Z" fill="#263238" stroke="#263238" stroke-width="1.15613" stroke-linecap="round" stroke-linejoin="round"/>
<path d="M542.035 397.448C540.196 380.951 531.404 376.925 531.404 376.925L507.201 390.497C507.201 390.497 495.83 410.659 495.468 416.133C495.107 421.607 495.107 424.562 495.107 424.562C495.107 424.562 486.3 445.463 483.374 456.456C482.628 459.493 482.344 462.625 482.53 465.746C486.752 469.033 496.102 474.07 513.067 473.286C527.559 472.637 535.838 468.762 540.211 465.67C540.158 464.155 540.017 462.645 539.789 461.146C539.789 461.146 543.86 413.946 542.035 397.448Z" fill="white" stroke="#263238" stroke-width="1.15613" stroke-linecap="round" stroke-linejoin="round"/>
<path d="M502.435 312.035C502.435 312.035 488.502 318.263 487.039 325.607C485.576 332.951 488.14 343.945 488.14 345.769C488.14 347.594 483.012 352.736 484.837 354.199C485.338 354.627 485.922 354.946 486.553 355.136C487.184 355.326 487.848 355.381 488.502 355.3C490.076 359.567 491.914 363.732 494.006 367.771C494.584 368.89 495.49 369.807 496.603 370.397C497.716 370.987 498.983 371.223 500.234 371.074C501.335 371.074 505.376 370.335 505.376 370.335L510.141 384.269L527.363 370.697C527.363 370.697 524.437 362.644 525.855 358.24C527.272 353.837 534.284 346.508 535.385 335.877C536.486 325.245 526.217 312.05 517.425 310.573C512.39 309.653 507.198 310.16 502.435 312.035Z" fill="white" stroke="#263238" stroke-width="1.15613" stroke-linecap="round" stroke-linejoin="round"/>
<path d="M517.47 310.557C512.402 309.635 507.176 310.157 502.39 312.065C502.39 312.065 501.154 312.623 499.374 313.573C502.39 312.307 507.578 310.934 508.603 316.092C510.111 323.421 500.551 328.156 502.013 331.489C503.476 334.821 508.98 335.892 510.443 339.918C511.906 343.945 513.745 345.784 515.208 343.96C516.671 342.135 515.947 338.455 518.511 337.717C521.074 336.978 524.784 342.467 524.784 346.84C524.784 351.213 520.019 353.083 520.019 353.083C520.702 354.134 521.621 355.013 522.701 355.648C523.782 356.284 524.996 356.661 526.247 356.748C526.337 356.74 526.428 356.74 526.518 356.748C528.735 352.224 534.435 345.377 535.415 335.847C536.531 325.23 526.292 312.035 517.47 310.557Z" fill="#B2B2B2" stroke="#263238" stroke-width="1.15613" stroke-linecap="round" stroke-linejoin="round"/>
<path d="M488.501 355.285C488.501 355.285 500.234 351.997 503.581 353.46C506.929 354.923 502.073 358.964 498.077 359.688C494.081 360.412 488.501 361.151 488.501 355.285Z" fill="#B2B2B2" stroke="#263238" stroke-width="1.15613" stroke-linecap="round" stroke-linejoin="round"/>
<path d="M494.745 342.829C494.745 344.442 494.247 345.754 493.644 345.754C493.041 345.754 492.543 344.442 492.543 342.829C492.543 341.215 493.026 339.813 493.644 339.813C494.262 339.813 494.745 341.2 494.745 342.829Z" fill="#263238"/>
<path d="M490.703 336.963C491.536 336.249 492.615 335.888 493.71 335.955C494.805 336.023 495.83 336.514 496.569 337.324" stroke="#263238" stroke-width="1.15613" stroke-linecap="round" stroke-linejoin="round"/>
<path d="M505.376 370.32C505.376 370.32 514.53 368.118 518.194 360.427" stroke="#263238" stroke-width="1.15613" stroke-linecap="round" stroke-linejoin="round"/>
<path d="M503.174 386.048L505.738 394.101L534.39 376.502L531.088 366.248C531.088 366.248 505.738 381.328 503.174 386.048Z" fill="white" stroke="#263238" stroke-width="1.15613" stroke-linecap="round" stroke-linejoin="round"/>
<path d="M514.53 444.016C514.53 444.016 484.475 445.84 477.87 445.84C473.035 445.668 468.237 444.929 463.574 443.639C463.574 443.639 459.91 438.511 458.447 437.049C456.984 435.586 453.682 435.209 450.379 435.209C447.077 435.209 444.151 433.701 444.151 435.948C444.151 438.195 445.659 438.149 447.077 438.873L451.48 441.075C451.48 441.075 440.472 441.452 439.009 441.452C437.546 441.452 434.244 439.25 434.606 442.176C434.968 445.101 437.546 445.478 440.11 445.478C442.673 445.478 451.103 449.505 453.682 449.505C456.261 449.505 462.835 449.882 462.835 449.882C462.835 449.882 477.915 452.807 487.778 456.849C497.64 460.89 520.773 462.338 523.336 460.513C525.9 458.688 526.292 444.016 526.292 444.016H514.53Z" fill="white" stroke="#263238" stroke-width="1.15613" stroke-linecap="round" stroke-linejoin="round"/>
<path d="M510.141 409.558L507.563 443.352C510.814 445.853 514.833 447.148 518.933 447.016C523.875 446.929 528.793 446.318 533.606 445.192C533.606 445.192 536.169 411.096 534.692 404.129C533.214 397.162 531.766 396.061 528.464 396.061" fill="white"/>
<path d="M510.141 409.558L507.563 443.352C510.814 445.853 514.833 447.148 518.933 447.016C523.875 446.929 528.793 446.318 533.606 445.192C533.606 445.192 536.169 411.096 534.692 404.129C533.214 397.162 531.766 396.061 528.464 396.061" stroke="#263238" stroke-width="1.15613" stroke-linecap="round" stroke-linejoin="round"/>
<path d="M520 353.062C520 353.062 524 366.5 500.95 374.96C495.979 375.384 493.356 372.397 490.677 369.375C487.999 366.353 484 355.236 484 352.62C484.312 350.668 486.096 349.273 487 347.5C501.492 351.035 515 344 515 344L505.829 353.062L511 359.5L520 353.062Z" fill="#E47A40" stroke="#263238" stroke-width="1.15613" stroke-linecap="round" stroke-linejoin="round"/>
<path d="M178.638 628.534C178.638 628.534 160.934 637.748 156.561 639.905C152.187 642.061 149.277 643.78 157.254 646.088C165.232 648.395 187.595 646.826 191.32 646.63C195.045 646.434 196.613 647.52 196.387 643.252C196.161 638.985 195.633 630.495 195.633 630.495C195.633 630.495 180.96 629.59 178.638 628.534Z" fill="white" stroke="#263238" stroke-width="1.15613" stroke-linecap="round" stroke-linejoin="round"/>
<path d="M256.918 626.589C255.707 629.917 254.118 633.094 252.183 636.059C249.68 639.407 242.426 643.599 242.426 645.258V646.932H271.274C271.274 646.932 274.471 644.414 274.471 642.408C274.471 640.402 272.797 628.203 272.797 628.203L256.918 626.589Z" fill="white" stroke="#263238" stroke-width="1.15613" stroke-linecap="round" stroke-linejoin="round"/>
<path d="M197.307 473.648C197.307 473.648 191.456 492.045 186.163 510.699C180.869 529.353 174.46 551.415 173.345 560.569C172.229 569.722 179.754 621.567 179.754 621.567C179.142 621.952 178.64 622.49 178.299 623.127C177.958 623.764 177.789 624.479 177.808 625.202C177.911 626.349 178.191 627.473 178.638 628.534C178.638 628.534 188.108 631.053 190.611 631.053C192.299 631.028 193.981 630.841 195.633 630.495C195.633 630.495 197.02 576.207 197.02 569.768C197.087 566.596 196.9 563.424 196.462 560.282L220.756 503.235L225.159 504.29C225.159 504.29 229.337 555.562 230.453 561.685C231.568 567.807 255.244 620.497 255.244 620.497C255.244 620.497 254.415 624.674 255.244 626.619C255.689 627.492 255.975 628.436 256.089 629.409C258.365 629.961 260.698 630.239 263.04 630.238C266.361 630.001 269.639 629.347 272.797 628.293C272.797 628.293 272.239 624.387 271.41 620.497C270.485 616.92 269.367 613.397 268.062 609.941L254.686 555.653C254.686 555.653 259.21 487.416 258.863 480.449C258.598 475.878 257.663 471.372 256.089 467.073C256.089 467.073 221.812 481.731 197.307 473.648Z" fill="#263238" stroke="#263238" stroke-width="1.15613" stroke-linecap="round" stroke-linejoin="round"/>
<path d="M193.718 381.614C193.718 381.614 179.241 380.891 171.987 385.596C164.734 390.301 164.025 406.602 162.939 408.774C161.854 410.945 154.977 439.19 154.253 443.186C153.529 447.182 160.768 455.129 163.663 453.32C166.559 451.51 178.517 420.732 178.517 420.732C178.517 420.732 195.889 452.611 197.337 455.868C198.785 459.126 196.613 476.513 196.613 476.513C196.613 476.513 200.609 484.053 219.806 483.389C239.003 482.726 257.506 472.532 257.506 472.532C257.506 472.532 254.249 452.611 253.525 448.63C252.801 444.649 250.63 409.151 246.649 395.382C242.667 381.614 234.69 376.548 228.553 376.548C221.294 376.492 214.039 376.854 206.822 377.633C202.386 378.726 198.012 380.055 193.718 381.614V381.614Z" fill="white" stroke="#263238" stroke-width="1.15613" stroke-linecap="round" stroke-linejoin="round"/>
<path d="M185.755 383.786C185.755 383.786 199.523 403.707 203.143 405.154C206.762 406.602 212.191 383.786 212.191 383.786L209.295 366.761C209.295 366.761 193.718 369.294 187.203 372.19C180.689 375.085 185.755 383.786 185.755 383.786Z" fill="white" stroke="#263238" stroke-width="1.15613" stroke-linecap="round" stroke-linejoin="round"/>
<path d="M180.327 381.615C180.327 381.615 189.736 393.558 195.165 394.282C200.594 395.006 204.213 394.282 206.762 388.129C208.194 384.631 208.571 371.104 208.571 371.104L178.155 378.644L180.327 381.615Z" fill="#E47A40" stroke="#263238" stroke-width="1.15613" stroke-linecap="round" stroke-linejoin="round"/>
<path d="M179.603 334.535C175.542 337.394 172.294 341.261 170.178 345.754C167.282 352.631 174.159 368.208 174.159 368.208C174.159 368.208 171.987 380.891 175.667 381.976C179.346 383.062 191.607 383.484 199.222 380.167C206.837 376.849 211.165 371.119 211.527 369.611C211.889 368.103 210.803 357.305 210.803 357.305C210.803 357.305 209.612 345.332 203.867 336.284C201.635 332.861 185.394 329.815 179.603 334.535Z" fill="#263238" stroke="#263238" stroke-width="1.15613" stroke-linecap="round" stroke-linejoin="round"/>
<path d="M185.032 339.964C185.032 339.964 182.136 340.687 177.492 346.478C172.847 352.269 172.772 361.332 172.772 361.332L171.882 361.95C173.058 365.539 174.219 368.208 174.219 368.208C174.219 368.208 172.048 380.891 175.727 381.976C179.407 383.062 191.667 383.484 199.282 380.167C206.898 376.849 211.226 371.119 211.587 369.611C211.949 368.103 210.864 357.306 210.864 357.306C200.971 340.687 185.032 339.964 185.032 339.964Z" fill="white" stroke="#263238" stroke-width="1.15613" stroke-linecap="round" stroke-linejoin="round"/>
<path d="M211.467 369.656C211.829 368.148 210.743 357.351 210.743 357.351C210.743 357.351 210.743 357.245 210.743 357.079C193.401 373.32 174.189 368.208 174.189 368.208C174.189 368.208 172.018 380.891 175.697 381.976C179.377 383.062 191.637 383.484 199.252 380.167C206.867 376.849 211.12 371.104 211.467 369.656Z" fill="#263238" stroke="#263238" stroke-width="1.15613" stroke-linecap="round" stroke-linejoin="round"/>
<path d="M159.848 419.571C157.511 428.724 154.66 440.683 154.208 443.186C153.469 447.167 160.723 455.129 163.618 453.32C165.458 452.174 170.932 439.356 174.702 430.142L159.848 419.571Z" fill="white" stroke="#263238" stroke-width="1.15613" stroke-linecap="round" stroke-linejoin="round"/>
<path d="M154.615 439.19C154.615 439.19 151.705 453.682 152.067 459.834C152.429 465.987 173.073 497.142 173.073 497.142L174.883 489.602C174.883 489.602 168.368 460.257 167.644 454.828C167.196 451.327 166.954 447.802 166.92 444.272" fill="white"/>
<path d="M154.615 439.19C154.615 439.19 151.705 453.682 152.067 459.834C152.429 465.987 173.073 497.142 173.073 497.142L174.883 489.602C174.883 489.602 168.368 460.257 167.644 454.828C167.196 451.327 166.954 447.802 166.92 444.272" stroke="#263238" stroke-width="1.15613" stroke-linecap="round" stroke-linejoin="round"/>
<path d="M170.102 508.905C169.864 510.328 170.064 511.79 170.675 513.097C171.686 514.816 177.612 516.55 177.748 515.54C177.884 514.53 177.899 511.212 177.899 511.212L170.102 508.905Z" fill="white" stroke="#263238" stroke-width="1.15613" stroke-linecap="round" stroke-linejoin="round"/>
<path d="M169.665 506.16C169.436 507.585 169.641 509.046 170.253 510.352C171.264 512.087 177.175 513.806 177.326 512.795C177.476 511.785 177.461 508.467 177.461 508.467L169.665 506.16Z" fill="white" stroke="#263238" stroke-width="1.15613" stroke-linecap="round" stroke-linejoin="round"/>
<path d="M169.092 502.405C168.854 503.828 169.054 505.29 169.665 506.598C170.675 508.332 176.602 510.066 176.738 509.056C176.873 508.045 176.888 504.713 176.888 504.713L169.092 502.405Z" fill="white" stroke="#263238" stroke-width="1.15613" stroke-linecap="round" stroke-linejoin="round"/>
<path d="M174.159 487.733C174.159 487.733 168.73 499.676 168.73 501.485C168.73 503.295 176.27 506.914 176.27 506.914L176.632 483.736L174.159 487.733Z" fill="white" stroke="#263238" stroke-width="1.15613" stroke-linecap="round" stroke-linejoin="round"/>
<path d="M249.725 482.258H174.129V550.118H249.725V482.258Z" fill="#9AAE7A" stroke="#263238" stroke-width="1.15613" stroke-linecap="round" stroke-linejoin="round"/>
<path d="M216.285 542.4C228.002 539.617 235.245 527.863 232.462 516.146C229.679 504.429 217.925 497.186 206.208 499.969C194.491 502.751 187.248 514.506 190.031 526.223C192.814 537.94 204.568 545.183 216.285 542.4Z" fill="white"/>
<path d="M217.574 482.258H206.264V494.156H217.574V482.258Z" fill="white" stroke="#263238" stroke-width="1.15613" stroke-linecap="round" stroke-linejoin="round"/>
<path d="M225.069 491.849L254.565 450.063C255.588 449.217 256.345 448.094 256.743 446.828C257.142 445.563 257.166 444.209 256.812 442.93C256.073 440.683 242.833 387.677 242.833 387.677C242.833 387.677 235.444 375.115 227.633 382.791C221.299 389.034 225.898 403.269 227.844 408.427C228.522 410.221 229.141 412.031 229.698 413.871L236.756 444.106L216.7 489.346C216.7 489.346 208.285 493.779 206.958 494.624C205.631 495.468 202.962 499.238 201.393 501.184C199.825 503.129 197.096 503.551 198.905 504.637C200.715 505.723 201.921 504.381 202.781 503.657L207.018 500.023L203.022 512.931C202.907 513.294 202.933 513.686 203.095 514.03C203.258 514.374 203.544 514.644 203.897 514.786C204.254 514.931 204.653 514.933 205.012 514.793C205.371 514.653 205.662 514.38 205.827 514.032L209.868 505.497L208.994 515.314C208.964 515.676 209.076 516.036 209.307 516.318C209.538 516.599 209.869 516.78 210.23 516.822V516.822C210.552 516.86 210.878 516.786 211.152 516.613C211.427 516.44 211.633 516.179 211.738 515.872L214.754 506.824L214.603 514.861L214.995 516.927C217.212 517.651 217.288 515.012 217.423 513.64L218.072 507.382L220.198 514.349C221.023 512.991 221.397 511.408 221.269 509.825L220.726 503.28L223.048 494.307L225.069 491.849Z" fill="white" stroke="#263238" stroke-width="1.15613" stroke-linecap="round" stroke-linejoin="round"/>
<path d="M230.241 415.605L229.699 413.825C229.141 411.986 228.522 410.176 227.844 408.381C225.898 403.269 221.299 389.034 227.633 382.745C235.444 375.07 242.833 387.631 242.833 387.631C242.833 387.631 245.548 398.61 248.413 410.07L230.241 415.605Z" fill="white" stroke="#263238" stroke-width="1.15613" stroke-linecap="round" stroke-linejoin="round"/>
<path d="M264.88 550.269H157.45V646.706H264.88V550.269Z" fill="#9AAE7A" stroke="#263238" stroke-width="1.15613" stroke-linecap="round" stroke-linejoin="round"/>
<path d="M209.567 632.003C225.741 632.003 238.852 618.891 238.852 602.717C238.852 586.544 225.741 573.432 209.567 573.432C193.393 573.432 180.281 586.544 180.281 602.717C180.281 618.891 193.393 632.003 209.567 632.003Z" fill="white"/>
<path d="M217.589 550.269H208.059V566.254H217.589V550.269Z" fill="white" stroke="#263238" stroke-width="1.15613" stroke-linecap="round" stroke-linejoin="round"/>
<path d="M165.217 510.262H89.6205V578.122H165.217V510.262Z" fill="#9AAE7A" stroke="#263238" stroke-width="1.15613" stroke-linecap="round" stroke-linejoin="round"/>
<path d="M132.599 570.439C144.295 567.571 151.451 555.763 148.583 544.067C145.714 532.371 133.907 525.214 122.211 528.083C110.514 530.952 103.358 542.759 106.226 554.455C109.095 566.151 120.902 573.308 132.599 570.439Z" fill="white"/>
<path d="M133.066 510.262H121.756V522.16H133.066V510.262Z" fill="white" stroke="#263238" stroke-width="1.15613" stroke-linecap="round" stroke-linejoin="round"/>
<path d="M165.217 578.846H89.6205V646.706H165.217V578.846Z" fill="#9AAE7A" stroke="#263238" stroke-width="1.15613" stroke-linecap="round" stroke-linejoin="round"/>
<path d="M142.169 633.878C151.034 625.727 151.612 611.932 143.46 603.067C135.309 594.203 121.514 593.625 112.65 601.776C103.785 609.928 103.207 623.722 111.358 632.587C119.51 641.452 133.304 642.03 142.169 633.878Z" fill="white"/>
<path d="M133.066 578.846H121.756V590.744H133.066V578.846Z" fill="white" stroke="#263238" stroke-width="1.15613" stroke-linecap="round" stroke-linejoin="round"/>
<path d="M55.9921 647.324H690.031" stroke="#263238" stroke-width="1.15613" stroke-linecap="round" stroke-linejoin="round"/>
</svg>
