<svg width="796" height="680" viewBox="0 0 796 680" fill="none" xmlns="http://www.w3.org/2000/svg">
<path d="M626.157 172.314C595.212 133.566 552.947 110.24 500.115 120.365C447.91 130.333 412.053 179.135 364.291 200.439C313.467 223.109 255.936 210.606 203.104 224.306C165.766 233.989 135.875 263.082 122.19 304.479C95.3901 385.435 117.747 481.543 178.34 534.603C216.134 567.655 265.078 580.457 311.345 571.286C346.875 564.166 380.098 546.109 415.627 538.377C477.345 524.934 542.167 544.97 602.916 522.784C667.212 499.287 688.131 430.563 687.718 361.497C687.348 298.654 666.272 222.525 626.157 172.314Z" fill="#B6C49D"/>
<path d="M616.433 158.846C585.489 120.098 543.223 96.772 490.391 106.897C438.186 116.865 402.329 165.667 354.567 186.97C303.743 209.641 246.212 197.138 193.38 210.837C156.042 220.521 126.152 249.614 112.467 291.01C85.6662 371.967 108.024 468.075 168.616 521.135C206.41 554.187 255.354 566.989 301.621 557.818C337.151 550.698 370.374 532.641 405.903 524.908C467.621 511.466 532.443 531.502 593.193 509.315C657.488 485.819 678.407 417.095 677.994 348.029C677.624 285.186 656.548 209.057 616.433 158.846Z" fill="#738F48"/>
<path d="M417.56 240.92H202.61V296.56H417.56V240.92Z" stroke="white" stroke-width="1.14333" stroke-linecap="round" stroke-linejoin="round"/>
<path d="M417.55 240.88H202.61L224.1 205.05H396.06L417.55 240.88Z" stroke="white" stroke-width="1.14333" stroke-linecap="round" stroke-linejoin="round"/>
<path d="M224.1 205.05V165.46" stroke="white" stroke-width="1.14333" stroke-linecap="round" stroke-linejoin="round"/>
<path d="M397.08 205.05V165.46" stroke="#263238" stroke-width="1.14333" stroke-linecap="round" stroke-linejoin="round"/>
<path d="M570.06 237.73L571.3 191.49C571.334 190.331 571.817 189.232 572.648 188.423C573.478 187.615 574.591 187.162 575.75 187.16V187.16C576.909 187.16 578.022 187.612 578.851 188.421C579.681 189.23 580.161 190.332 580.19 191.49L581.43 238" stroke="white" stroke-width="1.14333" stroke-linecap="round" stroke-linejoin="round"/>
<path d="M571.3 191.49L571 202.55H580.48L580.18 191.49C580.126 190.348 579.634 189.27 578.806 188.481C577.978 187.691 576.879 187.251 575.735 187.251C574.591 187.251 573.492 187.691 572.664 188.481C571.836 189.27 571.344 190.348 571.29 191.49H571.3Z" stroke="white" stroke-width="1.14333" stroke-linecap="round" stroke-linejoin="round"/>
<path d="M587.911 298.197C604.017 291.391 611.556 272.816 604.749 256.71C597.942 240.604 579.368 233.066 563.262 239.872C547.156 246.679 539.617 265.254 546.424 281.36C553.231 297.466 571.805 305.004 587.911 298.197Z" stroke="white" stroke-width="1.14333" stroke-linecap="round" stroke-linejoin="round"/>
<path d="M599.754 274.712C602.872 261.375 594.588 248.035 581.251 244.917C567.915 241.799 554.575 250.083 551.457 263.42C548.338 276.757 556.622 290.096 569.959 293.214C583.296 296.333 596.636 288.049 599.754 274.712Z" stroke="white" stroke-width="1.14333" stroke-linecap="round" stroke-linejoin="round"/>
<path d="M575.71 192.44C576.157 192.44 576.52 192.077 576.52 191.63C576.52 191.183 576.157 190.82 575.71 190.82C575.263 190.82 574.9 191.183 574.9 191.63C574.9 192.077 575.263 192.44 575.71 192.44Z" stroke="white" stroke-width="1.14333" stroke-linecap="round" stroke-linejoin="round"/>
<path d="M509.29 231.62L510.37 191C510.399 189.982 510.823 189.016 511.553 188.306C512.284 187.596 513.262 187.2 514.28 187.2V187.2C515.299 187.202 516.277 187.601 517.007 188.312C517.737 189.024 518.161 189.991 518.19 191.01L519.28 231.91" stroke="white" stroke-width="1.14333" stroke-linecap="round" stroke-linejoin="round"/>
<path d="M510.37 191L510.11 200.73H518.45L518.19 191.01C518.19 189.973 517.778 188.978 517.045 188.245C516.311 187.512 515.317 187.1 514.28 187.1C513.243 187.1 512.248 187.512 511.515 188.245C510.782 188.978 510.37 189.973 510.37 191.01V191Z" stroke="white" stroke-width="1.14333" stroke-linecap="round" stroke-linejoin="round"/>
<path d="M533.823 278.843C544.691 267.975 544.691 250.354 533.823 239.485C522.955 228.617 505.334 228.617 494.465 239.485C483.597 250.354 483.597 267.975 494.465 278.843C505.334 289.711 522.955 289.711 533.823 278.843Z" stroke="white" stroke-width="1.14333" stroke-linecap="round" stroke-linejoin="round"/>
<path d="M528.988 275.173C537.816 266.978 538.329 253.178 530.134 244.35C521.939 235.522 508.139 235.009 499.311 243.204C490.483 251.399 489.97 265.199 498.165 274.027C506.36 282.855 520.16 283.368 528.988 275.173Z" stroke="white" stroke-width="1.14333" stroke-linecap="round" stroke-linejoin="round"/>
<path d="M514.25 191.81C514.648 191.81 514.97 191.488 514.97 191.09C514.97 190.692 514.648 190.37 514.25 190.37C513.852 190.37 513.53 190.692 513.53 191.09C513.53 191.488 513.852 191.81 514.25 191.81Z" stroke="white" stroke-width="1.14333" stroke-linecap="round" stroke-linejoin="round"/>
<path d="M456.25 226.52L457.25 190.52C457.273 189.618 457.648 188.761 458.295 188.131C458.941 187.502 459.808 187.15 460.71 187.15V187.15C461.612 187.15 462.479 187.502 463.125 188.131C463.772 188.761 464.147 189.618 464.17 190.52L465.17 226.74" stroke="#263238" stroke-width="1.14333" stroke-linecap="round" stroke-linejoin="round"/>
<path d="M457.21 190.53L456.98 199.14H464.36L464.13 190.53C464.13 189.612 463.765 188.732 463.117 188.083C462.468 187.434 461.588 187.07 460.67 187.07C459.752 187.07 458.872 187.434 458.223 188.083C457.575 188.732 457.21 189.612 457.21 190.53V190.53Z" stroke="#263238" stroke-width="1.14333" stroke-linecap="round" stroke-linejoin="round"/>
<path d="M460.54 275.55C474.148 275.55 485.18 264.518 485.18 250.91C485.18 237.302 474.148 226.27 460.54 226.27C446.932 226.27 435.9 237.302 435.9 250.91C435.9 264.518 446.932 275.55 460.54 275.55Z" stroke="white" stroke-width="1.14333" stroke-linecap="round" stroke-linejoin="round"/>
<path d="M460.54 270.22C471.205 270.22 479.85 261.575 479.85 250.91C479.85 240.245 471.205 231.6 460.54 231.6C449.875 231.6 441.23 240.245 441.23 250.91C441.23 261.575 449.875 270.22 460.54 270.22Z" stroke="white" stroke-width="1.14333" stroke-linecap="round" stroke-linejoin="round"/>
<path d="M461.27 190.64C461.27 190.473 461.204 190.313 461.085 190.195C460.967 190.076 460.807 190.01 460.64 190.01C460.473 190.01 460.313 190.076 460.195 190.195C460.076 190.313 460.01 190.473 460.01 190.64C460.01 190.807 460.076 190.967 460.195 191.085C460.313 191.204 460.473 191.27 460.64 191.27C460.807 191.27 460.967 191.204 461.085 191.085C461.204 190.967 461.27 190.807 461.27 190.64V190.64Z" stroke="#263238" stroke-width="1.14333" stroke-linecap="round" stroke-linejoin="round"/>
<path d="M201.24 458.14H564.21" stroke="white" stroke-width="1.14333" stroke-linecap="round" stroke-linejoin="round"/>
<path d="M201.24 432.71H564.21" stroke="white" stroke-width="1.14333" stroke-linecap="round" stroke-linejoin="round"/>
<path d="M290.84 287.52C290.84 287.52 285.61 304.06 285.33 311.22C285.05 318.38 295.25 328 301 333.54C306.75 339.08 317 341.54 331.31 340.98C345.62 340.42 358.04 333.82 358.04 333.82C358.04 333.82 357.77 377.63 358.04 387.82C358.31 398.01 359.15 505.49 359.15 505.49H456.7C456.7 505.49 454.22 404.63 455.04 392.78C455.86 380.93 461.11 346.49 461.11 346.49C461.11 346.49 497.76 363.57 506.02 363.57C514.28 363.57 534.13 341.57 533.31 335.74C532.49 329.91 503.82 313.14 493.9 304.87C483.98 296.6 480.12 288.62 473.23 285.31C466.34 282 435.23 275.11 428.31 274.31C421.39 273.51 383.95 275.68 373.75 276.23C363.55 276.78 346.47 294.15 342.34 297.18C339.159 299.404 335.842 301.428 332.41 303.24C332.41 303.24 334.07 301.31 331.31 300.76C329.952 300.456 328.57 300.272 327.18 300.21C327.18 300.21 325.8 284.21 324.7 282.57C323.6 280.93 307.34 277.06 301.28 277.57C295.22 278.08 290.84 287.52 290.84 287.52Z" fill="white"/>
<path d="M531.2 341.57C532.69 339.11 533.53 337.03 533.35 335.75C532.52 329.96 503.86 313.15 493.94 304.88C484.02 296.61 480.16 288.63 473.27 285.32C466.38 282.01 435.27 275.12 428.35 274.32C424.688 274.086 421.016 274.05 417.35 274.21C425.5 282.61 403.15 297.74 407.94 298.14C412.73 298.54 434.23 295.27 446.55 289.93C446.55 289.93 461.34 289.51 473.67 296.93C484.16 303.17 511.21 325.44 531.2 341.57Z" fill="#E47A40"/>
<path d="M482.73 356C482.73 356 471.64 344.91 470.41 342C469.18 339.09 477.41 307.5 472.87 315.3C470.208 319.851 468.548 324.917 468 330.16C468 330.16 462.65 309.62 462.24 314.55C461.83 319.48 461.83 331.81 461.83 331.81C461.83 331.81 442.53 309.62 445.83 319.48C449.13 329.34 452.83 340.84 452.83 340.84L426.46 527.75L437.55 524.05L462.19 348.65L482.73 356Z" fill="#E47A40"/>
<path d="M358.27 343.31C358.27 343.31 358.68 299.31 357.44 301.41C356.2 303.51 354.98 312.91 354.98 312.91C354.98 312.91 348.82 298.53 347.98 303.46C347.14 308.39 349.21 319.07 349.21 319.07C349.21 319.07 341.81 321.95 321.69 325.23C301.57 328.51 305.69 325.23 317.58 319.48C329.47 313.73 338.58 300.59 338.58 294.42C338.58 288.25 334.47 270.94 321.74 268.51C309.01 266.08 282.3 291.14 280.25 296.07C278.2 301 295.83 294 295.83 294C295.83 294 298.29 305.51 299.11 309.2C299.93 312.89 294.6 319.06 294.18 320.7C293.76 322.34 304.04 318.65 303.18 319.88C302.32 321.11 292.5 328.88 294.56 332.62C296.62 336.36 313.49 342.9 328.69 345C338.574 346.127 348.578 345.555 358.27 343.31V343.31Z" fill="#E47A40"/>
<path opacity="0.5" d="M358.27 343.31C358.27 343.31 358.68 299.31 357.44 301.41C356.2 303.51 354.98 312.91 354.98 312.91C354.98 312.91 348.82 298.53 347.98 303.46C347.14 308.39 349.21 319.07 349.21 319.07C349.21 319.07 341.81 321.95 321.69 325.23C301.57 328.51 305.69 325.23 317.58 319.48C329.47 313.73 338.58 300.59 338.58 294.42C338.58 288.25 334.47 270.94 321.74 268.51C309.01 266.08 282.3 291.14 280.25 296.07C278.2 301 295.83 294 295.83 294C295.83 294 298.29 305.51 299.11 309.2C299.93 312.89 294.6 319.06 294.18 320.7C293.76 322.34 304.04 318.65 303.18 319.88C302.32 321.11 292.5 328.88 294.56 332.62C296.62 336.36 313.49 342.9 328.69 345C338.574 346.127 348.578 345.555 358.27 343.31Z" fill="white"/>
<path opacity="0.5" d="M482.73 356C482.73 356 471.64 344.91 470.41 342C469.18 339.09 477.41 307.5 472.87 315.3C470.208 319.851 468.548 324.917 468 330.16C468 330.16 462.65 309.62 462.24 314.55C461.83 319.48 461.83 331.81 461.83 331.81C461.83 331.81 442.53 309.62 445.83 319.48C449.13 329.34 452.83 340.84 452.83 340.84L426.46 527.75L437.55 524.05L462.19 348.65L482.73 356Z" fill="white"/>
<path d="M359.18 505.5H456.74C456.74 505.5 455.97 474.4 455.43 444.72L358.63 438.26C358.91 470.29 359.18 505.5 359.18 505.5Z" fill="#263238"/>
<path opacity="0.5" d="M531.2 341.57C532.69 339.11 533.53 337.03 533.35 335.75C532.52 329.96 503.86 313.15 493.94 304.88C484.02 296.61 480.16 288.63 473.27 285.32C466.38 282.01 435.27 275.12 428.35 274.32C424.688 274.086 421.016 274.05 417.35 274.21C425.5 282.61 403.15 297.74 407.94 298.14C412.73 298.54 434.23 295.27 446.55 289.93C446.55 289.93 461.34 289.51 473.67 296.93C484.16 303.17 511.21 325.44 531.2 341.57Z" fill="white"/>
<path d="M290.84 287.52C290.84 287.52 285.61 304.06 285.33 311.22C285.05 318.38 295.25 328 301 333.54C306.75 339.08 317 341.54 331.31 340.98C345.62 340.42 358.04 333.82 358.04 333.82C358.04 333.82 357.77 377.63 358.04 387.82C358.31 398.01 359.15 505.49 359.15 505.49H456.7C456.7 505.49 454.22 404.63 455.04 392.78C455.86 380.93 461.11 346.49 461.11 346.49C461.11 346.49 497.76 363.57 506.02 363.57C514.28 363.57 534.13 341.57 533.31 335.74C532.49 329.91 503.82 313.14 493.9 304.87C483.98 296.6 480.12 288.62 473.23 285.31C466.34 282 435.23 275.11 428.31 274.31C421.39 273.51 383.95 275.68 373.75 276.23C363.55 276.78 346.47 294.15 342.34 297.18C339.159 299.404 335.842 301.428 332.41 303.24C332.41 303.24 334.07 301.31 331.31 300.76C329.952 300.456 328.57 300.272 327.18 300.21C327.18 300.21 325.8 284.21 324.7 282.57C323.6 280.93 307.34 277.06 301.28 277.57C295.22 278.08 290.84 287.52 290.84 287.52Z" stroke="#263238" stroke-width="1.14333" stroke-linecap="round" stroke-linejoin="round"/>
<path d="M358.63 308.19L358.08 333.82L350.92 305.71" stroke="#263238" stroke-width="1.14333" stroke-linecap="round" stroke-linejoin="round"/>
<path d="M327.22 300.2C327.22 300.2 316.47 314.25 309 315.63" stroke="#263238" stroke-width="1.14333" stroke-linecap="round" stroke-linejoin="round"/>
<path d="M332.45 303.23C332.45 303.23 328.87 310.4 325.01 311.23" stroke="#263238" stroke-width="1.14333" stroke-linecap="round" stroke-linejoin="round"/>
<path d="M465.83 329.13L461.15 346.5L458.39 328.86" stroke="#263238" stroke-width="1.14333" stroke-linecap="round" stroke-linejoin="round"/>
<path d="M403.28 296.89L393.63 304.88L385.36 504.12" stroke="#263238" stroke-width="1.14333" stroke-linecap="round" stroke-linejoin="round"/>
<path d="M398 320.45C398 320.804 397.895 321.15 397.699 321.445C397.502 321.739 397.222 321.968 396.895 322.104C396.568 322.239 396.208 322.275 395.861 322.206C395.514 322.137 395.195 321.966 394.944 321.716C394.694 321.465 394.524 321.146 394.455 320.799C394.385 320.452 394.421 320.092 394.556 319.765C394.692 319.438 394.921 319.158 395.216 318.962C395.51 318.765 395.856 318.66 396.21 318.66C396.684 318.663 397.138 318.852 397.473 319.187C397.808 319.522 397.998 319.976 398 320.45Z" fill="#263238"/>
<path d="M417.88 320.45C417.88 320.804 417.775 321.15 417.578 321.445C417.382 321.739 417.102 321.968 416.775 322.104C416.448 322.239 416.088 322.275 415.741 322.206C415.394 322.137 415.075 321.966 414.824 321.716C414.574 321.465 414.404 321.146 414.334 320.799C414.265 320.452 414.301 320.092 414.436 319.765C414.572 319.438 414.801 319.158 415.096 318.962C415.39 318.765 415.736 318.66 416.09 318.66C416.564 318.663 417.018 318.852 417.353 319.187C417.688 319.522 417.877 319.976 417.88 320.45V320.45Z" fill="#263238"/>
<path d="M397.35 355C397.35 355.354 397.245 355.7 397.048 355.994C396.852 356.289 396.572 356.518 396.245 356.654C395.918 356.789 395.558 356.825 395.211 356.756C394.864 356.687 394.545 356.516 394.294 356.266C394.044 356.015 393.873 355.696 393.804 355.349C393.735 355.002 393.771 354.642 393.906 354.315C394.042 353.988 394.271 353.708 394.566 353.512C394.86 353.315 395.206 353.21 395.56 353.21C396.035 353.21 396.49 353.399 396.826 353.734C397.161 354.07 397.35 354.525 397.35 355V355Z" fill="#263238"/>
<path d="M417.19 355C417.19 355.354 417.085 355.7 416.888 355.994C416.692 356.289 416.412 356.518 416.085 356.654C415.758 356.789 415.398 356.825 415.051 356.756C414.704 356.687 414.385 356.516 414.134 356.266C413.884 356.015 413.714 355.696 413.645 355.349C413.575 355.002 413.611 354.642 413.746 354.315C413.882 353.988 414.111 353.708 414.406 353.512C414.7 353.315 415.046 353.21 415.4 353.21C415.635 353.21 415.868 353.256 416.085 353.346C416.302 353.436 416.5 353.568 416.666 353.734C416.832 353.9 416.964 354.098 417.054 354.315C417.144 354.532 417.19 354.765 417.19 355V355Z" fill="#263238"/>
<path d="M396.66 394.17C396.66 394.524 396.555 394.87 396.358 395.164C396.162 395.459 395.882 395.688 395.555 395.824C395.228 395.959 394.868 395.995 394.521 395.926C394.174 395.857 393.855 395.686 393.604 395.436C393.354 395.185 393.184 394.866 393.114 394.519C393.045 394.172 393.081 393.812 393.216 393.485C393.352 393.158 393.581 392.878 393.876 392.682C394.17 392.485 394.516 392.38 394.87 392.38C395.345 392.38 395.8 392.569 396.136 392.904C396.471 393.24 396.66 393.695 396.66 394.17V394.17Z" fill="#263238"/>
<path d="M416.5 394.17C416.5 394.524 416.395 394.87 416.198 395.164C416.002 395.459 415.722 395.688 415.395 395.824C415.068 395.959 414.708 395.995 414.361 395.926C414.014 395.857 413.695 395.686 413.444 395.436C413.194 395.185 413.024 394.866 412.955 394.519C412.885 394.172 412.921 393.812 413.056 393.485C413.192 393.158 413.421 392.878 413.716 392.682C414.01 392.485 414.356 392.38 414.71 392.38C414.945 392.38 415.178 392.426 415.395 392.516C415.612 392.606 415.81 392.738 415.976 392.904C416.142 393.07 416.274 393.268 416.364 393.485C416.454 393.702 416.5 393.935 416.5 394.17V394.17Z" fill="#263238"/>
<path d="M311.79 257.49C311.79 257.49 304.62 257.49 302.14 258.31C299.66 259.13 290.57 275.95 288.14 282.01C286.638 285.96 286.07 290.204 286.48 294.41L299.71 288.07L303.57 305.71C303.57 305.71 324.51 289.18 327.27 283.71C330.03 278.24 323.69 262.76 323.69 262.76L311.79 257.49Z" fill="#263238" stroke="#263238" stroke-width="1.14333" stroke-linecap="round" stroke-linejoin="round"/>
<path d="M403.83 268.51C403.83 268.51 390.6 272.09 389.22 278.71C387.84 285.33 399.14 295.79 401.35 297.71C403.56 299.63 423.94 295.5 433.04 293.3C442.14 291.1 454.26 285.3 453.98 280.62C453.7 275.94 448.19 274.01 446.54 270.15C444.89 266.29 443.78 264.09 438.82 263.54C433.875 263.056 428.9 262.963 423.94 263.26C422 263.55 403.83 268.51 403.83 268.51Z" fill="#263238" stroke="#263238" stroke-width="1.14333" stroke-linecap="round" stroke-linejoin="round"/>
<path d="M403.28 296.89C403.28 296.89 401.9 294.14 396.66 294.41C391.42 294.68 387.29 300.47 387.29 300.47C387.29 300.47 397.49 302.68 403.28 296.89Z" fill="#263238" stroke="#263238" stroke-width="1.14333" stroke-linecap="round" stroke-linejoin="round"/>
<path d="M403.28 296.89C403.28 296.89 405.48 292.76 409.89 297.17C414.3 301.58 417.05 309 417.05 309C417.05 309 411.27 311.48 405.76 305.69C400.25 299.9 403.28 296.89 403.28 296.89Z" fill="#263238" stroke="#263238" stroke-width="1.14333" stroke-linecap="round" stroke-linejoin="round"/>
<path d="M446 273.47C446 273.47 446.28 278.71 436.35 283.94C429.258 287.524 421.903 290.562 414.35 293.03" stroke="white" stroke-width="1.14333" stroke-linecap="round" stroke-linejoin="round"/>
<path d="M429.22 280.42C429.22 280.42 436.62 275.67 437.72 272.42C438.82 269.17 435.52 267.42 435.52 267.42" stroke="white" stroke-width="1.14333" stroke-linecap="round" stroke-linejoin="round"/>
<path d="M403.83 295.79C403.83 295.79 397.21 287.79 397.21 281.79C397.21 275.79 399.69 274.9 399.69 274.9" stroke="white" stroke-width="1.14333" stroke-linecap="round" stroke-linejoin="round"/>
<path d="M404.2 204.78C401.774 201.896 399.699 198.734 398.02 195.36C395.67 190.36 392.43 182.12 398.61 177.12C404.79 172.12 428.61 168.88 440.11 170.35C451.61 171.82 461.3 183.59 470.42 200.07C479.54 216.55 482.49 229.21 480.42 234.8C478.35 240.39 470.12 246.57 460.42 246.28C450.72 245.99 445.12 235.68 439.53 230.39C433.94 225.1 416.53 214.2 414.22 211.84C411.499 209.432 408.648 207.175 405.68 205.08L404.2 204.78Z" fill="white"/>
<path d="M447.37 172.75C451.87 178.23 462.46 192.09 463.43 202.41C464.66 215.55 439.6 208.98 439.6 208.98C439.6 208.98 456.03 199.12 451.1 200.35C446.17 201.58 442.1 198.71 434.67 198.71C427.24 198.71 417.83 188.85 417.83 192.14C417.83 195.43 418.65 196.25 420.71 199.14C422.77 202.03 418.65 199.14 428.51 213.14C431.51 217.43 433.83 222.46 436.1 227.57C437.46 228.63 438.64 229.57 439.52 230.44C445.11 235.73 450.7 246.03 460.41 246.33C470.12 246.63 478.41 240.44 480.41 234.85C482.41 229.26 479.52 216.6 470.41 200.12C463.28 187.18 455.79 177.2 447.37 172.75Z" fill="#E47A40"/>
<path opacity="0.5" d="M447.37 172.75C451.87 178.23 462.46 192.09 463.43 202.41C464.66 215.55 439.6 208.98 439.6 208.98C439.6 208.98 456.03 199.12 451.1 200.35C446.17 201.58 442.1 198.71 434.67 198.71C427.24 198.71 417.83 188.85 417.83 192.14C417.83 195.43 418.65 196.25 420.71 199.14C422.77 202.03 418.65 199.14 428.51 213.14C431.51 217.43 433.83 222.46 436.1 227.57C437.46 228.63 438.64 229.57 439.52 230.44C445.11 235.73 450.7 246.03 460.41 246.33C470.12 246.63 478.41 240.44 480.41 234.85C482.41 229.26 479.52 216.6 470.41 200.12C463.28 187.18 455.79 177.2 447.37 172.75Z" fill="white"/>
<path d="M404.2 204.78C401.774 201.896 399.699 198.734 398.02 195.36C395.67 190.36 392.43 182.12 398.61 177.12C404.79 172.12 428.61 168.88 440.11 170.35C451.61 171.82 461.3 183.59 470.42 200.07C479.54 216.55 482.49 229.21 480.42 234.8C478.35 240.39 470.12 246.57 460.42 246.28C450.72 245.99 445.12 235.68 439.53 230.39C433.94 225.1 416.53 214.2 414.22 211.84C411.499 209.432 408.648 207.175 405.68 205.08L404.2 204.78Z" stroke="#263238" stroke-width="1.14333" stroke-linecap="round" stroke-linejoin="round"/>
<path d="M413 194.56C413 194.56 410.08 192.94 405.21 186.77" stroke="#263238" stroke-width="1.14333" stroke-linecap="round" stroke-linejoin="round"/>
<path d="M415.66 184.86C415.515 183.991 415.488 183.106 415.58 182.23" stroke="#263238" stroke-width="1.14333" stroke-linecap="round" stroke-linejoin="round"/>
<path d="M420.45 195.86C418.802 193.342 417.459 190.636 416.45 187.8" stroke="#263238" stroke-width="1.14333" stroke-linecap="round" stroke-linejoin="round"/>
<path d="M444.15 208.85C444.15 208.85 452.27 210.47 459.41 209.18" stroke="#263238" stroke-width="1.14333" stroke-linecap="round" stroke-linejoin="round"/>
<path d="M469.16 224.07C469.9 224.07 470.66 224.07 471.42 224.07" stroke="#263238" stroke-width="1.14333" stroke-linecap="round" stroke-linejoin="round"/>
<path d="M455.51 222.16C458.823 222.99 462.197 223.552 465.6 223.84" stroke="#263238" stroke-width="1.14333" stroke-linecap="round" stroke-linejoin="round"/>
<path d="M453.94 228.32C453.94 228.32 462.01 237.1 467.85 238.72" stroke="#263238" stroke-width="1.14333" stroke-linecap="round" stroke-linejoin="round"/>
<path d="M447.76 233C447.76 232.12 443.34 221.82 435.69 214.46C428.04 207.1 413.32 205.34 408.32 205.63C403.32 205.92 400.96 208.28 400.96 208.28C400.96 208.28 395.67 227.71 393.02 234.48C390.913 240.31 390.836 246.68 392.8 252.56C394.632 257.79 397.075 262.784 400.08 267.44C404.5 274.5 404.5 293.93 404.5 293.93C404.5 293.93 426.57 283.93 429.22 280.39C431.87 276.85 430.39 264.5 431.57 258.61C431.812 257.409 432.167 256.234 432.63 255.1C434.059 253.542 435.197 251.74 435.99 249.78C435.99 249.78 447.76 233.92 447.76 233Z" fill="white"/>
<path d="M441.16 220.87L434.67 220.48C432.849 228.833 430.511 237.066 427.67 245.13C423.56 256.22 417.81 262.79 412.06 264.85C406.31 266.91 399.74 264.03 402.2 267.31C403.66 269.26 412.52 277.59 422.39 285.06C425.7 283.22 428.39 281.51 429.2 280.42C431.85 276.89 430.37 264.53 431.55 258.64C431.792 257.439 432.147 256.264 432.61 255.13C434.039 253.572 435.177 251.77 435.97 249.81C435.97 249.81 447.74 233.92 447.74 233.03C447.76 232.39 445.4 226.74 441.16 220.87Z" fill="#E47A40"/>
<path opacity="0.5" d="M441.16 220.87L434.67 220.48C432.849 228.833 430.511 237.066 427.67 245.13C423.56 256.22 417.81 262.79 412.06 264.85C406.31 266.91 399.74 264.03 402.2 267.31C403.66 269.26 412.52 277.59 422.39 285.06C425.7 283.22 428.39 281.51 429.2 280.42C431.85 276.89 430.37 264.53 431.55 258.64C431.792 257.439 432.147 256.264 432.61 255.13C434.039 253.572 435.177 251.77 435.97 249.81C435.97 249.81 447.74 233.92 447.74 233.03C447.76 232.39 445.4 226.74 441.16 220.87Z" fill="white"/>
<path d="M447.76 233C447.76 232.12 443.34 221.82 435.69 214.46C428.04 207.1 413.32 205.34 408.32 205.63C403.32 205.92 400.96 208.28 400.96 208.28C400.96 208.28 395.67 227.71 393.02 234.48C390.913 240.31 390.836 246.68 392.8 252.56C394.632 257.79 397.075 262.784 400.08 267.44C404.5 274.5 404.5 293.93 404.5 293.93C404.5 293.93 426.57 283.93 429.22 280.39C431.87 276.85 430.39 264.5 431.57 258.61C431.812 257.409 432.167 256.234 432.63 255.1C434.059 253.542 435.197 251.74 435.99 249.78C435.99 249.78 447.76 233.92 447.76 233Z" stroke="#263238" stroke-width="1.14333" stroke-linecap="round" stroke-linejoin="round"/>
<path d="M410.38 226.27C410.38 226.27 409.5 229.8 406.56 230.97C403.62 232.14 399.79 231.86 400.96 233.92C402.13 235.98 406.56 237.15 406.56 237.15" stroke="#263238" stroke-width="1.14333" stroke-linecap="round" stroke-linejoin="round"/>
<path d="M402.44 244.51C402.44 244.51 407.44 246.57 410.38 245.1" stroke="#263238" stroke-width="1.14333" stroke-linecap="round" stroke-linejoin="round"/>
<path d="M420.39 229.21C420.39 229.21 419.8 234.21 425.98 233.33" stroke="#263238" stroke-width="1.14333" stroke-linecap="round" stroke-linejoin="round"/>
<path d="M400.67 224.5C400.67 224.5 403.61 229.21 407.73 226.27" stroke="#263238" stroke-width="1.14333" stroke-linecap="round" stroke-linejoin="round"/>
<path d="M421.86 222.44C421.86 222.44 427.16 220.67 429.51 227.15" stroke="#263238" stroke-width="1.14333" stroke-linecap="round" stroke-linejoin="round"/>
<path d="M410.38 220.09C410.38 220.09 406.85 214.79 401.85 218.61" stroke="#263238" stroke-width="1.14333" stroke-linecap="round" stroke-linejoin="round"/>
<path d="M410.68 242.16C410.68 242.16 410.97 246.57 413.32 247.46" stroke="#263238" stroke-width="1.14333" stroke-linecap="round" stroke-linejoin="round"/>
<path d="M437.46 247.75C437.46 247.75 429.22 257.75 423.63 259.52" stroke="#263238" stroke-width="1.14333" stroke-linecap="round" stroke-linejoin="round"/>
<path d="M436.7 225.38C436.7 225.38 432.87 229.95 433.3 233.81C433.73 237.67 439.68 241.53 441.38 241.53C443.08 241.53 447.76 234.53 447.76 234.53C447.76 234.53 441 227.14 436.7 225.38Z" fill="#263238" stroke="#263238" stroke-width="1.14333" stroke-linecap="round" stroke-linejoin="round"/>
<path d="M410.44 212.29C410.44 212.29 407.13 215.6 399.14 215.6C394.616 215.635 390.098 215.267 385.64 214.5C385.64 214.5 403.55 210.09 410.44 212.29Z" fill="#263238" stroke="#263238" stroke-width="1.14333" stroke-linecap="round" stroke-linejoin="round"/>
<path d="M354.57 264.93C355.571 268.659 357.934 271.877 361.192 273.948C364.451 276.018 368.367 276.792 372.168 276.114C375.969 275.437 379.378 273.359 381.72 270.29C384.063 267.221 385.169 263.385 384.82 259.54L354.57 264.93Z" fill="white"/>
<path opacity="0.42" d="M354.57 264.93C355.571 268.659 357.934 271.877 361.192 273.948C364.451 276.018 368.367 276.792 372.168 276.114C375.969 275.437 379.378 273.359 381.72 270.29C384.063 267.221 385.169 263.385 384.82 259.54L354.57 264.93Z" fill="black"/>
<path d="M354.57 264.93C355.571 268.659 357.934 271.877 361.192 273.948C364.451 276.018 368.367 276.792 372.168 276.114C375.969 275.437 379.378 273.359 381.72 270.29C384.063 267.221 385.169 263.385 384.82 259.54L354.57 264.93Z" stroke="#263238" stroke-width="1.14333" stroke-linecap="round" stroke-linejoin="round"/>
<path d="M335.76 225C336.74 223.123 337.303 221.055 337.41 218.94C337.41 215.94 336.31 210.94 334.66 211.5C333.01 212.06 333.01 216.18 333.28 217.56C333.398 218.76 333.307 219.971 333.01 221.14C333.01 221.14 331.63 223.62 332.73 225.55C333.83 227.48 335.76 225 335.76 225Z" fill="white" stroke="#263238" stroke-width="1.14333" stroke-linecap="round" stroke-linejoin="round"/>
<path d="M354.57 264.93L324.71 200.85C324.533 200.472 324.283 200.132 323.974 199.851C323.665 199.569 323.304 199.352 322.911 199.211C322.518 199.069 322.101 199.007 321.684 199.028C321.266 199.048 320.857 199.151 320.48 199.33V199.33C320.099 199.509 319.758 199.763 319.477 200.076C319.195 200.39 318.979 200.756 318.841 201.154C318.704 201.551 318.647 201.973 318.674 202.393C318.701 202.813 318.812 203.223 319 203.6L320.31 206.23" stroke="#263238" stroke-width="1.14333" stroke-linecap="round" stroke-linejoin="round"/>
<path d="M324.46 214.77C324.46 214.77 324.46 218.08 325.84 218.91C327.22 219.74 334.38 223.91 334.66 221.39C334.94 218.87 329.66 215.6 328.05 214.77C326.44 213.94 325.84 214.22 324.46 214.77Z" stroke="#263238" stroke-width="1.14333" stroke-linecap="round" stroke-linejoin="round"/>
<path d="M325.84 218.91C325.84 218.91 321.43 227.72 321.43 231.58V246.19C321.43 246.19 304.35 264.1 303.52 268.78C302.69 273.46 300.52 284.78 303.52 284.78C306.52 284.78 320.61 271.27 321.71 268.52C322.81 265.77 329.42 247.58 329.42 247.58C329.974 246.687 330.621 245.856 331.35 245.1C332.45 243.99 332.73 236.83 332.73 236.83C332.73 236.83 335.73 236.55 335.73 234.9V225C335.76 222.76 325.84 218.91 325.84 218.91Z" fill="white"/>
<path d="M321.71 268.51C322.81 265.75 329.42 247.57 329.42 247.57C329.974 246.677 330.621 245.846 331.35 245.09C332.45 243.98 332.73 236.82 332.73 236.82C332.73 236.82 335.73 236.54 335.73 234.89V225C335.73 224.52 335.26 224 334.53 223.4L332.53 232.4L324.6 233.19C325.847 235.024 326.783 237.051 327.37 239.19C328.17 242.36 326.98 247.91 325 253.06C323.13 257.92 304.34 280.75 302.21 283.34C302.44 284.27 302.85 284.84 303.53 284.84C306.55 284.77 320.61 271.26 321.71 268.51Z" fill="#E47A40"/>
<path opacity="0.5" d="M321.71 268.51C322.81 265.75 329.42 247.57 329.42 247.57C329.974 246.677 330.621 245.846 331.35 245.09C332.45 243.98 332.73 236.82 332.73 236.82C332.73 236.82 335.73 236.54 335.73 234.89V225C335.73 224.52 335.26 224 334.53 223.4L332.53 232.4L324.6 233.19C325.847 235.024 326.783 237.051 327.37 239.19C328.17 242.36 326.98 247.91 325 253.06C323.13 257.92 304.34 280.75 302.21 283.34C302.44 284.27 302.85 284.84 303.53 284.84C306.55 284.77 320.61 271.26 321.71 268.51Z" fill="white"/>
<path d="M325.84 218.91C325.84 218.91 321.43 227.72 321.43 231.58V246.19C321.43 246.19 304.35 264.1 303.52 268.78C302.69 273.46 300.52 284.78 303.52 284.78C306.52 284.78 320.61 271.27 321.71 268.52C322.81 265.77 329.42 247.58 329.42 247.58C329.974 246.687 330.621 245.856 331.35 245.1C332.45 243.99 332.73 236.83 332.73 236.83C332.73 236.83 335.73 236.55 335.73 234.9V225C335.76 222.76 325.84 218.91 325.84 218.91Z" stroke="#263238" stroke-width="1.14333" stroke-linecap="round" stroke-linejoin="round"/>
<path d="M332.73 236.82L331.9 234.61L329.15 234.89" stroke="#263238" stroke-width="1.14333" stroke-linecap="round" stroke-linejoin="round"/>
<path d="M325.29 229.93L334.66 230.2" stroke="#263238" stroke-width="1.14333" stroke-linecap="round" stroke-linejoin="round"/>
<path d="M325.84 224.69L334.93 226.9" stroke="#263238" stroke-width="1.14333" stroke-linecap="round" stroke-linejoin="round"/>
<path d="M513.5 336.85C513.5 336.85 489.5 340.98 492.01 346.22L492.84 350.08C492.84 350.08 475.48 372.08 476.3 372.95C477.12 373.82 508.3 392.24 509.37 392.24C510.44 392.24 530.04 357.24 534.17 350.35C538.3 343.46 538.86 337.13 533.62 333.82C528.38 330.51 522.62 327.48 522.62 327.48" fill="white"/>
<path d="M533.62 333.82C528.38 330.51 522.62 327.48 522.62 327.48L519.27 330.93C522.67 333.83 528.47 339.18 528.76 342.07C529.17 346.18 523.01 354.4 522.19 356.07C521.37 357.74 513.97 344.57 506.99 344.57C500.01 344.57 507.29 347.17 510.99 351.21C514.69 355.25 515.16 361.82 512.28 365.93C509.58 369.79 480.48 367.85 485.73 378.8C495.25 384.49 508.62 392.27 509.34 392.27C510.44 392.27 530.01 357.27 534.14 350.38C538.27 343.49 538.86 337.13 533.62 333.82Z" fill="#E47A40"/>
<path opacity="0.5" d="M533.62 333.82C528.38 330.51 522.62 327.48 522.62 327.48L519.27 330.93C522.67 333.83 528.47 339.18 528.76 342.07C529.17 346.18 523.01 354.4 522.19 356.07C521.37 357.74 513.97 344.57 506.99 344.57C500.01 344.57 507.29 347.17 510.99 351.21C514.69 355.25 515.16 361.82 512.28 365.93C509.58 369.79 480.48 367.85 485.73 378.8C495.25 384.49 508.62 392.27 509.34 392.27C510.44 392.27 530.01 357.27 534.14 350.38C538.27 343.49 538.86 337.13 533.62 333.82Z" fill="white"/>
<path d="M513.5 336.85C513.5 336.85 489.5 340.98 492.01 346.22L492.84 350.08C492.84 350.08 475.48 372.08 476.3 372.95C477.12 373.82 508.3 392.24 509.37 392.24C510.44 392.24 530.04 357.24 534.17 350.35C538.3 343.46 538.86 337.13 533.62 333.82C528.38 330.51 522.62 327.48 522.62 327.48" stroke="#263238" stroke-width="1.14333" stroke-linecap="round" stroke-linejoin="round"/>
<path d="M496.42 348.42C496.42 348.42 504.96 345.12 511.02 351.18C517.08 357.24 518.19 359.72 518.19 359.72C517.977 357.247 517.255 354.845 516.07 352.665C514.884 350.484 513.26 348.573 511.3 347.05" stroke="#263238" stroke-width="1.14333" stroke-linecap="round" stroke-linejoin="round"/>
<path d="M464.73 386.18C464.73 386.18 461.97 389.76 459.22 391.18C455.089 393.519 451.588 396.827 449.02 400.82C445.71 405.82 441.58 410.19 444.02 412.12C445.447 413.265 447.194 413.939 449.02 414.05C449.02 414.05 450.67 417.91 452.88 418.18C453.977 418.335 455.082 418.429 456.19 418.46C456.19 418.46 458.11 420.39 459.19 420.39H462C462 420.39 463.1 421.77 465.58 420.39C468.06 419.01 470.58 410.74 471.37 407.99C472.16 405.24 472.2 399.44 472.2 399.44L476.06 393.93L467.24 385.11L464.73 386.18Z" fill="white"/>
<path d="M464.73 386.18C464.056 387.026 463.331 387.831 462.56 388.59L466.5 397.68C466.5 397.68 463.5 412.28 461.35 416.31C460.48 417.96 458.67 418.59 456.83 419C457.483 419.667 458.312 420.135 459.22 420.35H462C462 420.35 463.1 421.73 465.58 420.35C468.06 418.97 470.58 410.7 471.37 407.95C472.16 405.2 472.2 399.4 472.2 399.4L476.06 393.89L467.24 385.07L464.73 386.18Z" fill="#E47A40"/>
<path opacity="0.5" d="M464.73 386.18C464.056 387.026 463.331 387.831 462.56 388.59L466.5 397.68C466.5 397.68 463.5 412.28 461.35 416.31C460.48 417.96 458.67 418.59 456.83 419C457.483 419.667 458.312 420.135 459.22 420.35H462C462 420.35 463.1 421.73 465.58 420.35C468.06 418.97 470.58 410.7 471.37 407.95C472.16 405.2 472.2 399.4 472.2 399.4L476.06 393.89L467.24 385.07L464.73 386.18Z" fill="white"/>
<path d="M464.73 386.18C464.73 386.18 461.97 389.76 459.22 391.18C455.089 393.519 451.588 396.827 449.02 400.82C445.71 405.82 441.58 410.19 444.02 412.12C445.447 413.265 447.194 413.939 449.02 414.05C449.02 414.05 450.67 417.91 452.88 418.18C453.977 418.335 455.082 418.429 456.19 418.46C456.19 418.46 458.11 420.39 459.19 420.39H462C462 420.39 463.1 421.77 465.58 420.39C468.06 419.01 470.58 410.74 471.37 407.99C472.16 405.24 472.2 399.44 472.2 399.44L476.06 393.93L467.24 385.11L464.73 386.18Z" stroke="#263238" stroke-width="1.14333" stroke-linecap="round" stroke-linejoin="round"/>
<path d="M475.48 369.64C475.48 369.64 507.99 386.73 509.92 387.83C511.85 388.93 512.68 392.24 512.13 395.83C511.58 399.42 515.43 412.92 511.3 412.92C507.17 412.92 489.25 407.41 478.78 401.62C468.31 395.83 463.07 387.29 463.07 386.19C463.07 385.09 475.48 369.64 475.48 369.64Z" fill="#263238" stroke="#263238" stroke-width="1.14333" stroke-linecap="round" stroke-linejoin="round"/>
<path d="M446 236.27L453.95 228.27C458.2 224.02 450.74 215.77 448.04 212.72C441.707 205.645 433.689 200.286 424.73 197.14C419.3 195.2 407.5 191.52 404.51 198.85L399.21 211.79C399.21 211.79 413.63 210.62 425.99 217.09C438.35 223.56 446 236.27 446 236.27Z" fill="white"/>
<path d="M424.72 197.19C420.11 195.54 410.89 192.66 406.39 196.33C410.02 196.23 415.75 197.26 424.39 201.59C442.47 210.59 442.88 213.5 441.64 218.02C441.13 219.9 438.78 222.34 436.2 224.55C439.939 228.036 443.231 231.973 446 236.27L453.95 228.27C458.2 224.02 450.74 215.77 448.04 212.72C441.699 205.662 433.677 200.32 424.72 197.19V197.19Z" fill="#E47A40"/>
<path opacity="0.5" d="M424.72 197.19C420.11 195.54 410.89 192.66 406.39 196.33C410.02 196.23 415.75 197.26 424.39 201.59C442.47 210.59 442.88 213.5 441.64 218.02C441.13 219.9 438.78 222.34 436.2 224.55C439.939 228.036 443.231 231.973 446 236.27L453.95 228.27C458.2 224.02 450.74 215.77 448.04 212.72C441.699 205.662 433.677 200.32 424.72 197.19V197.19Z" fill="white"/>
<path d="M446 236.27L453.95 228.27C458.2 224.02 450.74 215.77 448.04 212.72C441.707 205.645 433.689 200.286 424.73 197.14C419.3 195.2 407.5 191.52 404.51 198.85L399.21 211.79C399.21 211.79 413.63 210.62 425.99 217.09C438.35 223.56 446 236.27 446 236.27Z" stroke="#263238" stroke-width="1.14333" stroke-linecap="round" stroke-linejoin="round"/>
<path d="M437.46 240.69C437.46 240.69 446.58 233.33 449.23 237.74C451.88 242.15 445.7 248.34 440.99 248.34C436.28 248.34 433.93 246.57 433.93 246.57" fill="white"/>
<path d="M437.46 240.69C437.46 240.69 446.58 233.33 449.23 237.74C451.88 242.15 445.7 248.34 440.99 248.34C436.28 248.34 433.93 246.57 433.93 246.57" fill="#E47A40"/>
<path opacity="0.5" d="M437.46 240.69C437.46 240.69 446.58 233.33 449.23 237.74C451.88 242.15 445.7 248.34 440.99 248.34C436.28 248.34 433.93 246.57 433.93 246.57" fill="white"/>
<path d="M437.46 240.69C437.46 240.69 446.58 233.33 449.23 237.74C451.88 242.15 445.7 248.34 440.99 248.34C436.28 248.34 433.93 246.57 433.93 246.57" stroke="#263238" stroke-width="1.14333" stroke-linecap="round" stroke-linejoin="round"/>
<path d="M221.41 505.5H544.04" stroke="white" stroke-width="1.14333" stroke-linecap="round" stroke-linejoin="round"/>
<path d="M380.68 407.69H283.29V514.07C283.29 520.47 305.18 525.66 332.19 525.66C359.2 525.66 381.09 520.47 381.09 514.07L380.68 407.69Z" fill="white"/>
<path opacity="0.42" d="M380.68 407.69H283.29V514.07C283.29 520.47 305.18 525.66 332.19 525.66C359.2 525.66 381.09 520.47 381.09 514.07L380.68 407.69Z" fill="black"/>
<path d="M306.45 407.69V523.92C313.892 524.968 321.394 525.54 328.91 525.63V407.69H306.45Z" fill="#263238"/>
<path d="M337.34 407.69V525.59C339.73 525.59 342.08 525.44 344.34 525.3V407.69H337.34Z" fill="#263238"/>
<path d="M347.87 407.69V525.05C350.303 524.85 352.637 524.61 354.87 524.33V407.69H347.87Z" fill="white"/>
<path d="M380.68 407.69H283.29V514.07C283.29 520.47 305.18 525.66 332.19 525.66C359.2 525.66 381.09 520.47 381.09 514.07L380.68 407.69Z" stroke="#263238" stroke-width="1.14333" stroke-linecap="round" stroke-linejoin="round"/>
<path d="M332.19 390.7C319.61 390.7 306.77 391.52 294.49 394.44C287.63 396.08 275.13 399.54 278.04 409.44C279.34 413.86 284.45 415.56 288.35 416.96C293.174 418.512 298.132 419.61 303.16 420.24C312.759 421.678 322.454 422.37 332.16 422.31C344.75 422.31 357.6 421.49 369.88 418.56C374.88 417.38 381.07 416.1 384.57 412.03C385.337 411.173 385.922 410.168 386.289 409.077C386.656 407.986 386.797 406.832 386.703 405.685C386.61 404.538 386.284 403.422 385.745 402.405C385.206 401.389 384.466 400.492 383.57 399.77C379.43 396.63 373.68 395.31 368.72 394.2C360.798 392.511 352.751 391.468 344.66 391.08C340.52 390.827 336.363 390.7 332.19 390.7Z" fill="white"/>
<path opacity="0.42" d="M332.19 390.7C319.61 390.7 306.77 391.52 294.49 394.44C287.63 396.08 275.13 399.54 278.04 409.44C279.34 413.86 284.45 415.56 288.35 416.96C293.174 418.512 298.132 419.61 303.16 420.24C312.759 421.678 322.454 422.37 332.16 422.31C344.75 422.31 357.6 421.49 369.88 418.56C374.88 417.38 381.07 416.1 384.57 412.03C385.337 411.173 385.922 410.168 386.289 409.077C386.656 407.986 386.797 406.832 386.703 405.685C386.61 404.538 386.284 403.422 385.745 402.405C385.206 401.389 384.466 400.492 383.57 399.77C379.43 396.63 373.68 395.31 368.72 394.2C360.798 392.511 352.751 391.468 344.66 391.08C340.52 390.827 336.363 390.7 332.19 390.7Z" fill="black"/>
<path d="M332.19 390.7C319.61 390.7 306.77 391.52 294.49 394.44C287.63 396.08 275.13 399.54 278.04 409.44C279.34 413.86 284.45 415.56 288.35 416.96C293.174 418.512 298.132 419.61 303.16 420.24C312.759 421.678 322.454 422.37 332.16 422.31C344.75 422.31 357.6 421.49 369.88 418.56C374.88 417.38 381.07 416.1 384.57 412.03C385.337 411.173 385.922 410.168 386.289 409.077C386.656 407.986 386.797 406.832 386.703 405.685C386.61 404.538 386.284 403.422 385.745 402.405C385.206 401.389 384.466 400.492 383.57 399.77C379.43 396.63 373.68 395.31 368.72 394.2C360.798 392.511 352.751 391.468 344.66 391.08C340.52 390.827 336.363 390.7 332.19 390.7Z" stroke="#263238" stroke-width="1.14333" stroke-linecap="round" stroke-linejoin="round"/>
<path d="M332.19 414.36C359.169 414.36 381.04 409.708 381.04 403.97C381.04 398.232 359.169 393.58 332.19 393.58C305.211 393.58 283.34 398.232 283.34 403.97C283.34 409.708 305.211 414.36 332.19 414.36Z" fill="white"/>
<path opacity="0.65" d="M332.19 414.36C359.169 414.36 381.04 409.708 381.04 403.97C381.04 398.232 359.169 393.58 332.19 393.58C305.211 393.58 283.34 398.232 283.34 403.97C283.34 409.708 305.211 414.36 332.19 414.36Z" fill="black"/>
<path d="M332.19 414.36C359.169 414.36 381.04 409.708 381.04 403.97C381.04 398.232 359.169 393.58 332.19 393.58C305.211 393.58 283.34 398.232 283.34 403.97C283.34 409.708 305.211 414.36 332.19 414.36Z" stroke="#263238" stroke-width="1.14333" stroke-linecap="round" stroke-linejoin="round"/>
<path d="M284.48 436.63C284.48 436.63 277.32 424.5 279.48 420.63C281.64 416.76 291.33 420.36 294.09 423.94C296.85 427.52 299.33 437.45 297.95 437.72C296.57 437.99 294.37 438.27 293.81 436.35C293.25 434.43 290.51 426.15 288.81 425.04C287.11 423.93 283.3 421.74 283.3 424.22C283.3 426.7 287.44 435.22 286.88 436.62C286.32 438.02 286.14 438.28 284.48 436.63Z" fill="#263238"/>
<path d="M473.41 430.9H395.18V516.35C395.18 521.49 412.77 525.66 434.46 525.66C456.15 525.66 473.74 521.49 473.74 516.35L473.41 430.9Z" fill="white"/>
<path opacity="0.42" d="M473.41 430.9H395.18V516.35C395.18 521.49 412.77 525.66 434.46 525.66C456.15 525.66 473.74 521.49 473.74 516.35L473.41 430.9Z" fill="black"/>
<path d="M473.41 430.9H395.18V516.35C395.18 521.49 412.77 525.66 434.46 525.66C456.15 525.66 473.74 521.49 473.74 516.35L473.41 430.9Z" stroke="#263238" stroke-width="1.14333" stroke-linecap="round" stroke-linejoin="round"/>
<path d="M413.79 430.9V524.26C419.755 525.101 425.767 525.562 431.79 525.64V430.9H413.79Z" fill="#263238"/>
<path d="M438.59 430.9V525.61C440.523 525.557 442.403 525.477 444.23 525.37V430.9H438.59Z" fill="#263238"/>
<path d="M447.05 430.9V525.17C449 525.01 450.89 524.82 452.69 524.6V430.9H447.05Z" fill="white"/>
<path d="M434.46 417.26C424.35 417.26 414.04 417.92 404.18 420.26C398.66 421.57 388.63 424.35 390.97 432.26C391.97 435.81 396.11 437.17 399.25 438.26C403.119 439.544 407.1 440.461 411.14 441C418.859 442.153 426.655 442.708 434.46 442.66C444.57 442.66 454.89 442 464.76 439.66C468.76 438.71 473.76 437.66 476.56 434.41C477.175 433.72 477.644 432.913 477.937 432.036C478.231 431.16 478.343 430.233 478.268 429.311C478.192 428.39 477.93 427.494 477.497 426.677C477.064 425.86 476.47 425.14 475.75 424.56C472.43 422.05 467.8 420.99 463.83 420.09C457.465 418.734 451 417.895 444.5 417.58C441.16 417.367 437.813 417.26 434.46 417.26Z" fill="white"/>
<path opacity="0.42" d="M434.46 417.26C424.35 417.26 414.04 417.92 404.18 420.26C398.66 421.57 388.63 424.35 390.97 432.26C391.97 435.81 396.11 437.17 399.25 438.26C403.119 439.544 407.1 440.461 411.14 441C418.859 442.153 426.655 442.708 434.46 442.66C444.57 442.66 454.89 442 464.76 439.66C468.76 438.71 473.76 437.66 476.56 434.41C477.175 433.72 477.644 432.913 477.937 432.036C478.231 431.16 478.343 430.233 478.268 429.311C478.192 428.39 477.93 427.494 477.497 426.677C477.064 425.86 476.47 425.14 475.75 424.56C472.43 422.05 467.8 420.99 463.83 420.09C457.465 418.734 451 417.895 444.5 417.58C441.16 417.367 437.813 417.26 434.46 417.26Z" fill="black"/>
<path d="M434.46 417.26C424.35 417.26 414.04 417.92 404.18 420.26C398.66 421.57 388.63 424.35 390.97 432.26C391.97 435.81 396.11 437.17 399.25 438.26C403.119 439.544 407.1 440.461 411.14 441C418.859 442.153 426.655 442.708 434.46 442.66C444.57 442.66 454.89 442 464.76 439.66C468.76 438.71 473.76 437.66 476.56 434.41C477.175 433.72 477.644 432.913 477.937 432.036C478.231 431.16 478.343 430.233 478.268 429.311C478.192 428.39 477.93 427.494 477.497 426.677C477.064 425.86 476.47 425.14 475.75 424.56C472.43 422.05 467.8 420.99 463.83 420.09C457.465 418.734 451 417.895 444.5 417.58C441.16 417.367 437.813 417.26 434.46 417.26Z" stroke="#263238" stroke-width="1.14333" stroke-linecap="round" stroke-linejoin="round"/>
<path d="M434.46 436.27C456.132 436.27 473.7 432.532 473.7 427.92C473.7 423.308 456.132 419.57 434.46 419.57C412.788 419.57 395.22 423.308 395.22 427.92C395.22 432.532 412.788 436.27 434.46 436.27Z" fill="white"/>
<path opacity="0.65" d="M434.46 436.27C456.132 436.27 473.7 432.532 473.7 427.92C473.7 423.308 456.132 419.57 434.46 419.57C412.788 419.57 395.22 423.308 395.22 427.92C395.22 432.532 412.788 436.27 434.46 436.27Z" fill="black"/>
<path d="M434.46 436.27C456.132 436.27 473.7 432.532 473.7 427.92C473.7 423.308 456.132 419.57 434.46 419.57C412.788 419.57 395.22 423.308 395.22 427.92C395.22 432.532 412.788 436.27 434.46 436.27Z" stroke="#263238" stroke-width="1.14333" stroke-linecap="round" stroke-linejoin="round"/>
<path d="M396.14 454.15C396.14 454.15 390.38 444.41 392.14 441.31C393.9 438.21 401.66 441.09 403.88 443.96C406.1 446.83 408.08 454.81 406.98 455.03C405.88 455.25 404.1 455.48 403.66 453.93C403.22 452.38 401 445.74 399.66 444.85C398.32 443.96 395.23 442.19 395.23 444.19C395.23 446.19 398.56 453.04 398.11 454.19C397.66 455.34 397.47 455.48 396.14 454.15Z" fill="#263238"/>
<path d="M306.7 358.91C306.7 365.11 312.31 365.11 312.31 371.3C312.31 377.49 306.7 377.49 306.7 383.69C306.7 389.89 312.31 389.88 312.31 396.08C312.31 402.28 306.7 402.28 306.7 408.47" stroke="#263238" stroke-width="1.14333" stroke-linecap="round" stroke-linejoin="round"/>
<path d="M312.31 346.53C312.31 350.43 310.08 351.87 308.43 353.96" stroke="#263238" stroke-width="1.14333" stroke-linecap="round" stroke-linejoin="round"/>
<path d="M332.8 358.44C332.8 363.44 327.19 363.44 327.19 368.44C327.19 373.44 332.8 373.44 332.8 378.44C332.8 383.44 327.19 383.44 327.19 388.44C327.19 393.44 332.8 393.44 332.8 398.44C332.8 403.44 327.19 403.44 327.19 408.44" stroke="#263238" stroke-width="1.14333" stroke-linecap="round" stroke-linejoin="round"/>
<path d="M353.29 346.53C353.29 352.72 347.68 352.72 347.68 358.91C347.68 365.1 353.29 365.11 353.29 371.3C353.29 377.49 347.68 377.49 347.68 383.69C347.68 389.89 353.29 389.88 353.29 396.08C353.29 402.28 347.68 402.28 347.68 408.47" stroke="#263238" stroke-width="1.14333" stroke-linecap="round" stroke-linejoin="round"/>
<path d="M419.39 397.69C419.847 398.544 420.074 399.502 420.05 400.47C420.05 405.13 415.82 405.13 415.82 409.8C415.82 414.47 420.05 414.47 420.05 419.14C420.05 423.81 415.82 423.82 415.82 428.49" stroke="#263238" stroke-width="1.14333" stroke-linecap="round" stroke-linejoin="round"/>
<path d="M435.5 390.77C435.5 394.54 431.27 394.54 431.27 398.31C431.27 402.08 435.5 402.08 435.5 405.85C435.5 409.62 431.27 409.62 431.27 413.4C431.27 417.18 435.5 417.17 435.5 420.94C435.5 424.71 431.27 424.71 431.27 428.49" stroke="#263238" stroke-width="1.14333" stroke-linecap="round" stroke-linejoin="round"/>
<path d="M449 405C447.9 406.22 446.75 407.38 446.75 409.81C446.75 414.48 450.98 414.48 450.98 419.15C450.98 423.82 446.75 423.83 446.75 428.5" stroke="#263238" stroke-width="1.14333" stroke-linecap="round" stroke-linejoin="round"/>
</svg>
